<svg xmlns="http://www.w3.org/2000/svg" viewBox="0 0 144.27 136.75"><defs><style>.cls-1{fill:#ffc215;}</style></defs><title>blog-icon</title><g id="Camada_2" data-name="Camada 2"><g id="Camada_2-2" data-name="Camada 2"><path class="cls-1" d="M144.27,68.37a44,44,0,0,0-14.92-33,44,44,0,0,0-57.21-33,44,44,0,0,0-57.21,33,44,44,0,0,0,0,66.1,44,44,0,0,0,57.21,33,44,44,0,0,0,57.21-33A44,44,0,0,0,144.27,68.37Zm-6.79,0a37.23,37.23,0,0,1-7.29,22.14,44.16,44.16,0,0,0-5.85-19.89c-.43-.75-.88-1.48-1.35-2.2l0,0,0-.05c.47-.72.93-1.45,1.36-2.2a44.12,44.12,0,0,0,5.85-19.88A37.18,37.18,0,0,1,137.48,68.37Zm-47.11,43a37.24,37.24,0,0,1-18.23,15.85,37.38,37.38,0,0,1-18.25-15.85h0c.74-.17,1.47-.36,2.2-.56l.48-.14c.7-.21,1.4-.43,2.1-.67l.39-.14c.65-.24,1.29-.48,1.92-.75l.28-.11c.68-.29,1.36-.6,2-.92.14-.08.29-.15.44-.22.66-.33,1.32-.68,2-1l.24-.13c.6-.35,1.2-.72,1.79-1.09l.34-.22c.63-.41,1.24-.83,1.84-1.27l.38-.28c.61-.46,1.23-.93,1.82-1.42.6.49,1.21,1,1.83,1.42l.37.28c.61.44,1.22.86,1.85,1.27l.33.21c.6.38,1.2.75,1.81,1.1l.22.13c.65.37,1.32.72,2,1l.44.21c.67.33,1.34.64,2,.93l.26.11c.64.26,1.29.51,1.94.75l.39.14c.69.24,1.39.46,2.1.67l.47.14c.73.2,1.46.39,2.2.56ZM21.19,97.81a37.34,37.34,0,0,1,4.59-23.75h0c.52.56,1.05,1.1,1.59,1.63l.35.34c.54.51,1.08,1,1.64,1.49l.31.26c.53.45,1.07.89,1.62,1.31l.23.18c.59.44,1.2.87,1.81,1.29l.41.27c.62.41,1.25.81,1.9,1.19l.23.14c.6.35,1.22.68,1.84,1l.36.19c.66.33,1.34.65,2,.95l.43.19c.71.31,1.42.6,2.15.87-.13.77-.24,1.53-.33,2.3,0,.15,0,.31-.05.46-.08.74-.14,1.49-.18,2.23,0,.14,0,.27,0,.4,0,.71,0,1.41,0,2.11v.26c0,.75,0,1.5.08,2.24l0,.49c0,.74.12,1.48.22,2.22l0,.27c.09.69.2,1.39.33,2.07,0,.13,0,.26.07.39.13.73.29,1.46.47,2.18,0,.15.08.3.11.45.19.74.39,1.48.62,2.21h0A37.38,37.38,0,0,1,21.19,97.81Zm0-58.87A37.33,37.33,0,0,1,44,31.08h0c-.22.73-.43,1.47-.62,2.21,0,.16-.07.31-.11.46-.18.72-.33,1.44-.47,2.17,0,.13,0,.26-.07.39q-.2,1-.33,2.07l0,.27c-.1.74-.17,1.49-.22,2.23l0,.48c0,.75-.08,1.49-.08,2.24v.27c0,.7,0,1.4,0,2.1,0,.13,0,.27,0,.4,0,.75.1,1.49.18,2.23,0,.16,0,.31.05.47.09.76.2,1.53.32,2.29-.72.27-1.44.57-2.15.87l-.42.19c-.69.3-1.36.62-2,1l-.36.18c-.62.33-1.24.66-1.85,1l-.23.13c-.64.38-1.27.78-1.9,1.19l-.4.27c-.61.42-1.22.85-1.82,1.3l-.22.17c-.55.42-1.09.86-1.62,1.31l-.31.26c-.56.48-1.11,1-1.64,1.49l-.34.33c-.55.53-1.08,1.08-1.6,1.64h0A37.33,37.33,0,0,1,21.18,38.94ZM53.89,25.38A37.38,37.38,0,0,1,72.14,9.53,37.35,37.35,0,0,1,90.38,25.38h0c-.74.17-1.47.36-2.2.57l-.48.13c-.7.21-1.4.43-2.1.67l-.39.15c-.65.23-1.29.48-1.93.74l-.27.11c-.68.29-1.36.6-2,.93l-.44.22c-.67.33-1.33.67-2,1l-.23.14c-.6.34-1.2.71-1.79,1.09l-.35.21c-.62.41-1.23.83-1.83,1.27l-.38.28c-.62.46-1.23.93-1.83,1.43-.59-.5-1.21-1-1.82-1.43l-.38-.28c-.6-.44-1.22-.86-1.84-1.27l-.33-.21c-.6-.38-1.21-.75-1.82-1.1l-.21-.13c-.66-.37-1.32-.72-2-1.05l-.43-.21q-1-.49-2-.93l-.25-.1c-.64-.27-1.3-.52-2-.76l-.37-.13c-.69-.25-1.4-.47-2.11-.68L56.11,26c-.73-.21-1.46-.4-2.2-.57ZM123.09,39a37.3,37.3,0,0,1-4.6,23.72h0c-.52-.57-1.06-1.11-1.6-1.64l-.34-.33q-.81-.78-1.65-1.5l-.3-.25c-.53-.45-1.08-.9-1.63-1.32l-.21-.17c-.6-.45-1.21-.88-1.83-1.3-.13-.09-.26-.18-.4-.26-.62-.42-1.25-.82-1.9-1.2l-.23-.13c-.6-.35-1.22-.69-1.84-1l-.36-.19c-.66-.33-1.34-.65-2-1l-.43-.18c-.71-.31-1.42-.6-2.15-.87.13-.76.23-1.53.32-2.29l.06-.47c.08-.74.14-1.48.18-2.23,0-.13,0-.27,0-.4,0-.7,0-1.4,0-2.11V43.6c0-.75,0-1.49-.08-2.24l0-.48c-.06-.74-.13-1.49-.22-2.23l0-.27c-.1-.69-.2-1.38-.33-2.07,0-.13,0-.26-.07-.39-.13-.73-.29-1.45-.47-2.17,0-.15-.07-.3-.11-.46-.19-.74-.39-1.47-.62-2.21h0A37.27,37.27,0,0,1,123.09,39ZM113.91,69l-.56.62c-.14.15-.28.3-.43.44l-.57.59-.44.43-.6.56-.45.4-.65.56c-.14.12-.28.25-.43.36l-.76.61-.35.27-1.13.83-.32.21c-.29.2-.57.39-.86.57l-.47.3-.73.45-.52.29-.73.4-.54.29-.73.37-.56.26-.75.35-.55.24-.8.32c-.18.07-.36.15-.54.21s-.6.22-.9.33l-.45.16-1.39.44-3.1.91.76,3.14c.12.47.22.94.31,1.42,0,.15.06.31.09.47.06.31.12.63.17,1l.09.56.12.86.06.59c0,.28.06.56.08.84s0,.4,0,.6,0,.56,0,.84,0,.4,0,.6,0,.56,0,.84,0,.39,0,.58,0,.6,0,.89,0,.35,0,.53c0,.36,0,.72-.07,1.08,0,.11,0,.22,0,.33l-.15,1.4-.06.41c0,.33-.09.66-.15,1s-.06.36-.1.54-.1.57-.16.86l-.12.58c-.06.27-.12.54-.19.81l-.15.59c-.07.26-.14.53-.22.79s-.11.39-.17.59-.17.53-.26.79-.12.38-.19.57-.05.14-.08.22l-.22,0-.6-.13-.8-.17-.61-.15-.79-.2-.59-.17-.79-.24-.57-.18-.81-.29-.53-.19-.91-.36-.4-.16-1.29-.57-.31-.16-1-.47-.47-.25-.77-.42-.51-.3-.72-.43-.51-.32-.69-.46c-.17-.11-.34-.22-.5-.34l-.69-.49-.47-.35-.7-.54-.43-.35q-.37-.3-.75-.63l-.35-.3c-.37-.32-.72-.65-1.07-1l-2.35-2.23-2.34,2.23-1.07,1-.36.3c-.24.22-.49.43-.74.63l-.44.35-.69.54-.48.35c-.22.17-.45.33-.68.49l-.5.34-.7.46-.5.32-.73.43-.5.3-.78.42-.47.25-.95.47-.32.16c-.42.2-.85.39-1.28.57l-.4.16c-.3.12-.61.25-.92.36l-.52.19-.81.29-.58.18-.78.24-.6.17-.78.2-.61.15-.8.17-.6.13L51,105c0-.08-.06-.15-.08-.22s-.13-.38-.19-.56-.18-.54-.26-.81-.11-.38-.17-.57-.15-.54-.22-.81l-.15-.58c-.07-.27-.13-.55-.19-.82s-.09-.38-.12-.57-.12-.58-.17-.88-.07-.34-.09-.51c-.06-.35-.11-.69-.16-1,0-.12,0-.24,0-.36Q49,96.6,49,95.89c0-.09,0-.19,0-.28,0-.38-.05-.76-.07-1.14,0-.16,0-.32,0-.49s0-.62,0-.93V92.5c0-.29,0-.58,0-.87s0-.39,0-.58,0-.57,0-.86,0-.38,0-.58l.09-.86.06-.57.12-.88c0-.19,0-.37.08-.55l.18-1c0-.15.05-.3.08-.45.1-.47.2-1,.32-1.42l.75-3.14-3.09-.91-1.39-.44-.44-.16-.92-.33-.52-.2-.81-.34L43,78.16l-.77-.35-.54-.26-.76-.38-.51-.27-.76-.42-.48-.28-.79-.48-.42-.26c-.32-.21-.64-.42-1-.64l-.23-.15c-.39-.27-.77-.55-1.15-.84l-.28-.22c-.28-.22-.56-.43-.83-.66l-.4-.33L33.4,72,33,71.65l-.63-.59-.42-.41-.59-.6c-.14-.14-.28-.28-.41-.43L30.35,69c-.13-.15-.26-.29-.38-.44l-.16-.18.15-.18.39-.44.57-.63.41-.43.6-.6.42-.41.62-.59.42-.38.69-.59.39-.33.83-.66.28-.22,1.15-.84.22-.14,1-.64.42-.26.79-.49.48-.27.76-.42c.17-.1.34-.18.52-.27l.76-.39.53-.25.78-.36.53-.23L44.3,58l.52-.21.92-.33c.15,0,.29-.11.44-.15.46-.16.92-.31,1.39-.44l3.1-.92h0l-.76-3.14c-.12-.47-.22-.94-.32-1.41,0-.16-.05-.32-.08-.47l-.18-1c0-.19,0-.38-.08-.56l-.12-.87c0-.2,0-.39-.07-.59s-.05-.56-.08-.84,0-.4,0-.6,0-.55,0-.83,0-.4,0-.6,0-.56,0-.85v-.57c0-.3,0-.6,0-.9s0-.35,0-.52c0-.37,0-.73.07-1.1,0-.1,0-.21,0-.31q.06-.7.15-1.41l.06-.39c0-.34.09-.67.15-1l.09-.53c0-.29.11-.58.17-.86s.08-.38.12-.57.12-.55.19-.82l.15-.58c.07-.27.14-.54.22-.81s.11-.38.17-.58.17-.54.26-.8l.18-.56.09-.22.23,0,.57.11.84.19.57.14c.28.06.55.14.82.21l.57.16.81.25.55.17.85.3.49.18,1,.38.34.14c.44.18.87.38,1.3.58l.26.13,1,.49.44.24.81.44.48.28.74.45.5.31.71.46.49.34.69.49.47.35.69.54.44.35.74.63.36.31c.36.32.72.64,1.07,1l2.34,2.22,2.35-2.22c.35-.34.7-.66,1.06-1l.36-.31.75-.63.43-.34.7-.55.47-.34.69-.5.49-.33.71-.47.49-.31.75-.45.48-.28.81-.44.44-.24,1-.5.26-.12L85.67,34l.36-.14,1-.38.5-.18.84-.3.55-.17.81-.25.58-.16.8-.21.6-.14c.26-.07.53-.12.8-.18s.4-.09.61-.12l.22,0a2,2,0,0,0,.08.22l.18.55c.09.27.18.54.26.82s.12.38.17.56.15.55.22.82l.15.57c.07.28.13.56.19.84s.09.37.12.55.12.59.17.89l.09.51c.06.34.11.69.15,1l.06.37q.09.7.15,1.41a2.83,2.83,0,0,0,0,.29c0,.37,0,.75.07,1.12,0,.17,0,.34,0,.51s0,.61,0,.91v.57c0,.28,0,.57,0,.86s0,.39,0,.59,0,.56,0,.84,0,.39,0,.59,0,.56-.08.84l-.06.59-.12.87-.09.56c-.05.31-.11.63-.17,1,0,.15-.05.31-.09.47-.09.47-.19.94-.31,1.41L93.6,56l3.1.91c.47.13.93.28,1.39.43l.45.16.9.33L100,58l.8.32.55.25.75.34a5.77,5.77,0,0,1,.56.27c.25.11.49.24.73.36l.54.29.73.4.52.3c.24.14.49.29.73.45l.47.29c.29.18.57.37.86.57l.32.21,1.13.83.35.27.76.61.43.36.65.56.45.4.6.57.44.43.57.58.43.45.56.61.4.45.15.18-.15.18Zm-13.67,36.67h0c.23-.73.43-1.46.62-2.2L101,103c.17-.71.33-1.44.47-2.16,0-.13,0-.27.07-.41.12-.68.23-1.36.32-2,0-.1,0-.19,0-.29.09-.74.16-1.47.22-2.21l0-.5c0-.74.07-1.49.08-2.23v-.28c0-.7,0-1.39,0-2.09,0-.13,0-.27,0-.41q-.06-1.11-.18-2.22l-.06-.47c-.09-.77-.19-1.53-.32-2.3.73-.27,1.44-.56,2.15-.86l.43-.19c.68-.31,1.35-.62,2-1l.36-.19c.62-.32,1.23-.66,1.83-1l.25-.13c.64-.38,1.27-.78,1.89-1.19l.41-.27c.61-.42,1.22-.85,1.81-1.3l.23-.17q.82-.64,1.62-1.32a3.61,3.61,0,0,0,.3-.25c.57-.48,1.12-1,1.65-1.5l.34-.32c.54-.54,1.08-1.08,1.61-1.65h0a37.33,37.33,0,0,1,4.6,23.73A37.39,37.39,0,0,1,100.24,105.67Zm4.57-93.89a37.21,37.21,0,0,1,15.52,17.38,44.12,44.12,0,0,0-20.15-4.87c-.85,0-1.71,0-2.57.07l0-.07h-.07c-.38-.76-.79-1.52-1.22-2.26A44.18,44.18,0,0,0,82,7,37.2,37.2,0,0,1,104.81,11.78Zm-65.34,0a37.25,37.25,0,0,1,18.62-5A36.66,36.66,0,0,1,62.28,7,44,44,0,0,0,48,22c-.43.75-.84,1.5-1.22,2.26h-.07l0,.08a44.45,44.45,0,0,0-22.73,4.81A37.25,37.25,0,0,1,39.47,11.78ZM6.79,68.37a37.15,37.15,0,0,1,7.3-22.14,44.15,44.15,0,0,0,5.84,19.89c.43.75.88,1.48,1.35,2.2l0,.05,0,.06c-.47.71-.92,1.44-1.35,2.18a44.23,44.23,0,0,0-5.84,19.91A37.18,37.18,0,0,1,6.79,68.37ZM39.47,125A37.19,37.19,0,0,1,24,107.59a44.23,44.23,0,0,0,20.14,4.87c.85,0,1.71,0,2.57-.08l0,.07h.07c.39.77.79,1.52,1.22,2.26a44.11,44.11,0,0,0,14.3,15A37.17,37.17,0,0,1,39.47,125Zm65.34,0A37.2,37.2,0,0,1,82,129.71a44.17,44.17,0,0,0,14.29-15c.43-.75.84-1.51,1.22-2.26h.06l0-.07c.86.05,1.72.08,2.58.08a44.19,44.19,0,0,0,20.15-4.88A37.17,37.17,0,0,1,104.81,125Z"/></g></g></svg>