<svg xmlns="http://www.w3.org/2000/svg" viewBox="0 0 137.03 137.03"><defs><style>.cls-1{fill:#14ce4f;}</style></defs><title>favicon</title><g id="Camada_2" data-name="Camada 2"><g id="Camada_2-2" data-name="Camada 2"><path class="cls-1" d="M137,68.51c0-12.26-6.71-18.4-14.53-22.36,2.73-8.32,3.13-17.41-5.54-26.08S99.2,11.8,90.88,14.52C86.92,6.71,80.78,0,68.51,0S50.11,6.71,46.15,14.52c-8.32-2.72-17.41-3.13-26.08,5.55S11.8,37.83,14.52,46.15C6.71,50.11,0,56.25,0,68.51S6.71,86.92,14.52,90.88C11.8,99.2,11.39,108.29,20.07,117c5.39,5.39,10.94,7.28,16.37,7.27a31.36,31.36,0,0,0,9.71-1.73c4,7.81,10.1,14.53,22.36,14.53s18.41-6.71,22.37-14.53c8.32,2.73,17.41,3.13,26.08-5.54s8.27-17.76,5.54-26.08C130.32,86.92,137,80.78,137,68.51ZM112.16,24.87c6,6,6.07,12.15,4.1,18.55-1.37-.53-2.73-1-4.05-1.5-4.53-1.65-8.82-3.21-11.72-5.38-2.18-2.91-3.74-7.19-5.38-11.72-.48-1.32-1-2.68-1.51-4.05C100,18.8,106.19,18.9,112.16,24.87ZM87.27,113.8c-1.25-.55-2.52-1.14-3.79-1.74a72.66,72.66,0,0,0-10.81-4.37c2.78-2.12,5.77-4.59,9.06-7.49,3.83-.21,7.72-.59,11.6-1.13a71.25,71.25,0,0,0-4.61,10.82C88.24,111.21,87.77,112.52,87.27,113.8Zm-39-3.91a70.25,70.25,0,0,0-4.6-10.82c3.88.54,7.76.92,11.6,1.13,3.07,2.7,6.08,5.16,9.14,7.47a70.1,70.1,0,0,0-10.89,4.39c-1.28.59-2.54,1.19-3.8,1.74C49.26,112.52,48.78,111.21,48.3,109.89Zm1.45-86.67c1.26.56,2.52,1.15,3.8,1.75a73,73,0,0,0,10.84,4.38c-2.71,2-5.62,4.4-9,7.37-3.86.2-7.76.58-11.64,1.12a72,72,0,0,0,4.54-10.7C48.78,25.82,49.26,24.51,49.75,23.22Zm39,3.92a73.06,73.06,0,0,0,4.54,10.7c-3.7-.52-7.6-.92-11.64-1.19-3-2.62-6.05-5.06-9-7.31A71.8,71.8,0,0,0,83.48,25c1.27-.6,2.54-1.19,3.79-1.75C87.77,24.51,88.24,25.82,88.72,27.14Zm6.43,50.07L93.55,79l-.13,2.39c-.19,3.62-.55,7.3-1.06,11-3.67.51-7.36.86-11,1L79,93.54l-1.78,1.57c-3.16,2.79-6,5.15-8.67,7.17-2.93-2.21-5.82-4.57-8.77-7.18L58,93.54l-2.36-.13c-3.63-.19-7.32-.54-11-1-.51-3.67-.86-7.35-1-11L43.48,79l-1.61-1.78c-2.51-2.8-4.86-5.64-7.13-8.65,2.43-3.24,4.78-6.12,7.14-8.76L43.48,58l.13-2.39c.19-3.66.54-7.37,1-11.06,3.7-.51,7.42-.87,11.09-1.06l2.37-.12,1.77-1.57c3.27-2.88,6-5.17,8.64-7.08,2.82,2.17,5.73,4.55,8.67,7.07l1.71,1.47,2.26.15c3.88.26,7.64.64,11.19,1.14.51,3.69.87,7.4,1.06,11.06L93.55,58l1.59,1.79c2.37,2.64,4.72,5.52,7.15,8.76C100,71.57,97.67,74.41,95.15,77.21ZM36.82,55.27c-2.48,2.77-4.94,5.79-7.47,9.15A70.83,70.83,0,0,0,25,53.55c-.6-1.28-1.19-2.54-1.75-3.8,1.29-.49,2.6-1,3.92-1.45a71.41,71.41,0,0,0,10.8-4.59C37.4,47.56,37,51.44,36.82,55.27ZM29.34,72.66c2.38,3.16,4.85,6.16,7.49,9.09.2,3.82.58,7.7,1.12,11.57a71.11,71.11,0,0,0-10.81-4.6c-1.32-.48-2.63-1-3.92-1.45.56-1.25,1.15-2.52,1.75-3.79A72.76,72.76,0,0,0,29.34,72.66Zm70.86,9.09c2.64-2.93,5.1-5.93,7.49-9.09a71.7,71.7,0,0,0,4.37,10.82c.6,1.27,1.19,2.54,1.74,3.79-1.28.5-2.59,1-3.91,1.45a72.71,72.71,0,0,0-10.82,4.6C99.61,89.46,100,85.58,100.2,81.75Zm7.47-17.33c-2.52-3.36-5-6.38-7.47-9.15-.2-3.84-.58-7.71-1.11-11.56a71.41,71.41,0,0,0,10.8,4.59c1.32.48,2.63,1,3.92,1.45-.56,1.26-1.15,2.52-1.75,3.8A72.36,72.36,0,0,0,107.67,64.42ZM68.51,6.79c8.45,0,12.89,4.3,16,10.22-1.34.6-2.65,1.21-3.92,1.8-4.37,2-8.51,4-12.1,4.48-3.59-.51-7.72-2.44-12.09-4.48-1.27-.59-2.58-1.2-3.93-1.8C55.63,11.09,60.07,6.79,68.51,6.79ZM24.87,24.87c3.83-3.84,7.75-5.25,11.76-5.25a23.36,23.36,0,0,1,6.79,1.15c-.53,1.37-1,2.73-1.5,4.05-1.65,4.53-3.21,8.81-5.38,11.72-2.91,2.17-7.19,3.73-11.72,5.38-1.32.48-2.68,1-4.05,1.5C18.8,37,18.9,30.84,24.87,24.87ZM6.79,68.51c0-8.44,4.3-12.88,10.22-16,.6,1.34,1.21,2.66,1.8,3.93,2,4.37,4,8.5,4.48,12.09-.51,3.59-2.44,7.73-4.48,12.1-.59,1.27-1.2,2.58-1.8,3.92C11.09,81.4,6.79,77,6.79,68.51Zm18.08,43.65c-6-6-6.07-12.15-4.1-18.56,1.37.53,2.73,1,4.05,1.51,4.53,1.64,8.81,3.2,11.72,5.38,2.17,2.9,3.73,7.19,5.38,11.72.48,1.32,1,2.68,1.5,4.05C37,118.23,30.84,118.13,24.87,112.16Zm43.64,18.08c-8.44,0-12.88-4.3-16-10.23,1.34-.59,2.66-1.2,3.93-1.8,4.37-2,8.5-4,12.09-4.48,3.59.52,7.73,2.45,12.1,4.48,1.27.6,2.58,1.21,3.92,1.8C81.4,125.94,77,130.24,68.51,130.24Zm43.65-18.08c-6,6-12.15,6.07-18.56,4.1.53-1.37,1-2.73,1.51-4.05,1.64-4.53,3.2-8.82,5.38-11.72,2.9-2.18,7.19-3.74,11.72-5.38,1.32-.48,2.68-1,4.05-1.51C118.23,100,118.13,106.19,112.16,112.16ZM120,84.53c-.59-1.34-1.2-2.65-1.8-3.92-2-4.37-4-8.51-4.48-12.1.52-3.59,2.45-7.72,4.48-12.09.6-1.27,1.21-2.59,1.8-3.93,5.93,3.14,10.23,7.58,10.23,16S125.94,81.4,120,84.53Z"/></g></g></svg>