<svg xmlns="http://www.w3.org/2000/svg" viewBox="0 0 62.49 62.5"><defs><style>.cls-1{fill:none;stroke:#14ce4f;stroke-miterlimit:10;stroke-width:2.5px;}</style></defs><title>instagram-outline</title><g id="Camada_2" data-name="Camada 2"><g id="Camada_1-2" data-name="Camada 1"><path class="cls-1" d="M31.1,16A15.45,15.45,0,1,0,46.56,31.4,15.46,15.46,0,0,0,31.1,16Zm0,24.37A8.92,8.92,0,1,1,40,31.4,8.94,8.94,0,0,1,31.1,40.33Z"/><path class="cls-1" d="M50.71,15.5a3.66,3.66,0,1,1-3.66-3.65A3.66,3.66,0,0,1,50.71,15.5Z"/><path class="cls-1" d="M46.11,1.25H16.38A15.13,15.13,0,0,0,1.25,16.38V46.11A15.13,15.13,0,0,0,16.38,61.25H46.11A15.13,15.13,0,0,0,61.24,46.11V16.38A15.13,15.13,0,0,0,46.11,1.25ZM54.57,46a8.6,8.6,0,0,1-8.6,8.6H16.51A8.59,8.59,0,0,1,7.91,46V16.53a8.61,8.61,0,0,1,8.6-8.62H46a8.6,8.6,0,0,1,8.6,8.62Z"/></g></g></svg>