<svg xmlns="http://www.w3.org/2000/svg" viewBox="0 0 65.21 62.5"><defs><style>.cls-1{fill:none;stroke:#14ce4f;stroke-miterlimit:10;stroke-width:2.5px;}</style></defs><title>linkedin-outline</title><g id="Camada_2" data-name="Camada 2"><g id="Camada_1-2" data-name="Camada 1"><path class="cls-1" d="M64,38.42V61.25H50V39.83c0-5.38-1.93-9.06-6.75-9.06a7.3,7.3,0,0,0-6.83,4.87,9.17,9.17,0,0,0-.44,3.25V61.25H22.62s.17-36.29,0-40H35.93v5.87a.6.6,0,0,1-.09.13h.09v-.13a13.66,13.66,0,0,1,12.31-6.57c9,0,15.72,5.69,15.72,17.91ZM8.85,1.25c-4.6,0-7.6,3-7.6,7s2.92,7,7.42,7h.09c4.68,0,7.59-3.1,7.59-7s-2.91-7-7.5-7Zm-6.95,60h13v-40H1.9Z"/></g></g></svg>