<svg id="Camada_1" data-name="Camada 1" xmlns="http://www.w3.org/2000/svg" viewBox="0 0 264.31 51.64"><defs><style>.cls-1{fill:#14ce4f;}.cls-2{fill:#455761;}</style></defs><title>Prancheta 1</title><g id="Layer_2" data-name="Layer 2"><g id="Layer_1-2" data-name="Layer 1-2"><path class="cls-1" d="M50,37.93A11.88,11.88,0,1,1,61.91,26.05,11.88,11.88,0,0,1,50,37.93m0,13.7a25.44,25.44,0,0,0,18.73-8.18,25.9,25.9,0,0,0,18.72,8.16A25.53,25.53,0,0,0,113,26.08h0a27.28,27.28,0,0,0-1.92-10A3.13,3.13,0,0,0,107.57,14,55.33,55.33,0,0,0,99.87,16c-6.75,2.19-11.54,7.09-13.6,9.14-1,.94-.33,2.51,1,1.62,1.56-1,5.16-4.24,8.91-4.24a3.22,3.22,0,0,1,3.12,3.19c0,4.14-2,11-11.36,12-3.57.36-11,1.35-15.07,2.62a.84.84,0,0,1-1-.57.86.86,0,0,1,.05-.61c2.72-4.94,3.19-9.06,3.71-13.15.87-6.84,5.6-11.87,11.87-11.87a11.33,11.33,0,0,1,4.7,1,2.4,2.4,0,0,0,2.44-.34L102.47,7a1.21,1.21,0,0,0,0-1.71l-.08-.06a22.22,22.22,0,0,0-3-1.87A25.53,25.53,0,0,0,68.82,8.64h0A25.53,25.53,0,0,0,28.35,39.58H16.92a3.17,3.17,0,0,1-3.19-3.15V4.73A3.19,3.19,0,0,0,10.6,1.48H3.21A3.21,3.21,0,0,0,0,4.68H0V46.94a4.65,4.65,0,0,0,4.61,4.69H50Z"/><path class="cls-2" d="M142.58,36.08a2.92,2.92,0,0,0-2.26-1,3,3,0,0,0-2.25,1,3.45,3.45,0,0,0-.92,2.46,3,3,0,0,0,.93,2.31,2.88,2.88,0,0,0,2.23,1,2.94,2.94,0,0,0,2.26-1,3.34,3.34,0,0,0,1-2.38,3.49,3.49,0,0,0-.93-2.41M136.8,48.48a1.27,1.27,0,0,1-1.85,0,1.22,1.22,0,0,1-.37-.89V33.74a1.23,1.23,0,0,1,.36-.89,1.19,1.19,0,0,1,.89-.36,1.42,1.42,0,0,1,.88.28,1.1,1.1,0,0,1,.44.69,5.82,5.82,0,0,1,3.24-1,5.43,5.43,0,0,1,4.06,1.79,5.83,5.83,0,0,1,1.69,4.21,5.77,5.77,0,0,1-1.69,4.19,5.48,5.48,0,0,1-4.07,1.72,5.37,5.37,0,0,1-3.2-1v4.19a1.24,1.24,0,0,1-.39.89"/><path class="cls-2" d="M151.54,38.47a3.47,3.47,0,0,0,.87,2.42,2.85,2.85,0,0,0,2.23,1,3,3,0,0,0,2.27-1,3.45,3.45,0,0,0,.89-2.41,3.49,3.49,0,0,0-.9-2.43,3,3,0,0,0-2.26-1,2.83,2.83,0,0,0-2.22,1,3.51,3.51,0,0,0-.88,2.43m-.92,4.21a6.24,6.24,0,0,1,0-8.42,5.34,5.34,0,0,1,4-1.76,5.48,5.48,0,0,1,3.18,1.05,1.49,1.49,0,0,1,.45-.75,1.2,1.2,0,0,1,.83-.3,1.18,1.18,0,0,1,.86.38,1.24,1.24,0,0,1,.36.91v9.36a1.18,1.18,0,0,1-.36.89,1.19,1.19,0,0,1-.86.37,1.26,1.26,0,0,1-.83-.29,1.42,1.42,0,0,1-.45-.74,5.47,5.47,0,0,1-3.18,1,5.32,5.32,0,0,1-4-1.74"/><path class="cls-2" d="M167.57,33.93a3.9,3.9,0,0,1,1.5-1,4.54,4.54,0,0,1,1.74-.38,1.68,1.68,0,0,1,1.16.37,1.15,1.15,0,0,1,.36.87,1.26,1.26,0,0,1-1.25,1.28q-2.22,0-3.5,3.6V43.2a1.23,1.23,0,0,1-.38.89,1.33,1.33,0,0,1-.92.37,1.26,1.26,0,0,1-.9-.37,1.22,1.22,0,0,1-.37-.89V33.77a1.22,1.22,0,0,1,.37-.88,1.3,1.3,0,0,1,.9-.36,1.36,1.36,0,0,1,.92.36,1.23,1.23,0,0,1,.38.88Z"/><path class="cls-2" d="M179.49,32.5a1.3,1.3,0,0,1,1,.38,1.23,1.23,0,0,1,.39.92,1.34,1.34,0,0,1-1.33,1.33h-.6v6.65a1.2,1.2,0,0,1,.93.39,1.28,1.28,0,0,1,.39,1,1.31,1.31,0,0,1-1.3,1.32h0a2.65,2.65,0,0,1-2.64-2.65v-6.7h-.69a1.32,1.32,0,0,1,0-2.63h.69V29.05a1.26,1.26,0,0,1,.4-.93A1.36,1.36,0,0,1,179,29V32.5Z"/><path class="cls-2" d="M195,36a3.66,3.66,0,0,0-.86,2.47A3.84,3.84,0,0,0,195,41a3.28,3.28,0,0,0,4.48,0,3.65,3.65,0,0,0,.93-2.52,3.48,3.48,0,0,0-.93-2.47A3.22,3.22,0,0,0,195,36m2.29,8.48a5.43,5.43,0,0,1-4.08-1.76,6.17,6.17,0,0,1,0-8.45,5.37,5.37,0,0,1,4-1.79,5.28,5.28,0,0,1,4,1.81A6.11,6.11,0,0,1,203,38.58a5.5,5.5,0,0,1-1.68,4.1,5,5,0,0,1-3.95,1.81"/><path class="cls-2" d="M213.22,29a1.34,1.34,0,0,1-1.33,1.33h0a1.07,1.07,0,0,0-.72.14c-.06,0-.12.13-.16.4a5.52,5.52,0,0,0-.06.81v.34h.71a1.22,1.22,0,0,1,.93.39,1.18,1.18,0,0,1,.39.92,1.31,1.31,0,0,1-.39.93,1.24,1.24,0,0,1-.93.39h-.71v8.41a1.31,1.31,0,0,1-1.29,1.32h0a1.31,1.31,0,0,1-1.31-1.31h0V34.68h-.62a1.31,1.31,0,0,1-1-2.21l0,0a1.28,1.28,0,0,1,1-.39h.62v-.35c0-2.64,1.2-3.95,3.6-3.95a1.23,1.23,0,0,1,.92.39,1.26,1.26,0,0,1,.4.93"/><path class="cls-2" d="M229.61,32.86a1.25,1.25,0,0,1,.88-.36,1.29,1.29,0,0,1,.91.37,1.19,1.19,0,0,1,.38.89v9a5.66,5.66,0,0,1-5.62,5.7h-.07a5.33,5.33,0,0,1-2.45-.59,1.13,1.13,0,0,1-.67-.7,1.41,1.41,0,0,1,0-1,1.35,1.35,0,0,1,.75-.6,1.42,1.42,0,0,1,1.09.12,3.09,3.09,0,0,0,1.44.28,2.86,2.86,0,0,0,1.68-.62A3,3,0,0,0,229,43.82a4.52,4.52,0,0,1-2.27.58,4.79,4.79,0,0,1-3.51-1.48,4.86,4.86,0,0,1-1.47-3.53V33.76a1.26,1.26,0,0,1,2.51-.22v5.84a2.27,2.27,0,0,0,.72,1.73,2.46,2.46,0,0,0,1.75.71,2.41,2.41,0,0,0,1.78-.71,2.3,2.3,0,0,0,.71-1.73V33.76a1.21,1.21,0,0,1,.36-.9"/><path class="cls-2" d="M239.71,36a3.66,3.66,0,0,0-.86,2.47,3.89,3.89,0,0,0,.86,2.52,3.28,3.28,0,0,0,4.48,0,3.65,3.65,0,0,0,.93-2.52,3.44,3.44,0,0,0-.93-2.47,3.22,3.22,0,0,0-4.48,0M242,44.49a5.43,5.43,0,0,1-4.08-1.76,6.17,6.17,0,0,1,0-8.45,5.37,5.37,0,0,1,4-1.79,5.3,5.3,0,0,1,4,1.81,6.14,6.14,0,0,1,1.65,4.28,5.49,5.49,0,0,1-1.67,4.1,5.08,5.08,0,0,1-4,1.81"/><path class="cls-2" d="M261.44,39.46A4.73,4.73,0,0,1,260,43a4.88,4.88,0,0,1-3.53,1.47,4.82,4.82,0,0,1-3.5-1.46,4.75,4.75,0,0,1-1.46-3.5v-5.7a1.26,1.26,0,0,1,2.11-.92l0,0a1.22,1.22,0,0,1,.37.88v5.7a2.39,2.39,0,0,0,2.37,2.43h.06a2.48,2.48,0,0,0,2.51-2.42V33.76a1.25,1.25,0,0,1,1.22-1.26,1.26,1.26,0,0,1,.9.38,1.21,1.21,0,0,1,.4.88Z"/><path class="cls-2" d="M137.83,10.63v12a1.53,1.53,0,0,1-.46,1.12,1.49,1.49,0,0,1-1.12.47,1.52,1.52,0,0,1-1.12-.46,1.56,1.56,0,0,1-.46-1.13V5.78a1.33,1.33,0,0,1,.57-1.28,1.68,1.68,0,0,1,1.3-.32,1.49,1.49,0,0,1,1,.62l9.37,13v-12a1.58,1.58,0,0,1,1.51-1.56,1.53,1.53,0,0,1,1.11.46,1.44,1.44,0,0,1,.48,1.1V22.63a1.5,1.5,0,0,1-.48,1.13,1.57,1.57,0,0,1-1.11.53,1.48,1.48,0,0,1-1.16-.58.86.86,0,0,1-.14-.18Z"/><path class="cls-2" d="M158.25,17a4.3,4.3,0,0,0,1.05,3A3.51,3.51,0,0,0,162,21.18,3.61,3.61,0,0,0,164.78,20a4.22,4.22,0,0,0,1.08-3,4.27,4.27,0,0,0-1.09-3A3.56,3.56,0,0,0,162,12.84a3.46,3.46,0,0,0-2.73,1.22,4.26,4.26,0,0,0-1.06,3m-1.12,5.12a7.21,7.21,0,0,1-2-5.12,7.24,7.24,0,0,1,2-5.13,6.42,6.42,0,0,1,4.94-2.14A6.52,6.52,0,0,1,165.91,11a1.89,1.89,0,0,1,.56-.91,1.48,1.48,0,0,1,2,.1,1.57,1.57,0,0,1,.44,1.1v11.4a1.49,1.49,0,0,1-.44,1.09,1.41,1.41,0,0,1-1,.44,1.47,1.47,0,0,1-1-.34,1.75,1.75,0,0,1-.56-.9,6.51,6.51,0,0,1-3.86,1.24,6.44,6.44,0,0,1-4.94-2.11"/><path class="cls-2" d="M179.54,9.76a1.56,1.56,0,0,1,1.14.46,1.5,1.5,0,0,1,.48,1.12A1.62,1.62,0,0,1,179.54,13h-.72v8.1a1.49,1.49,0,0,1,1.12.47,1.63,1.63,0,0,1-1.07,2.77h-.06a3.22,3.22,0,0,1-3.22-3.21V12.94h-.84a1.61,1.61,0,0,1-1.13-2.72,1.54,1.54,0,0,1,1.13-.46h.84V5.55a1.49,1.49,0,0,1,.52-1.13A1.57,1.57,0,0,1,177.26,4a1.59,1.59,0,0,1,1.59,1.59h0V9.76Z"/><path class="cls-2" d="M198.09,18.23a5.77,5.77,0,0,1-1.81,4.24,5.91,5.91,0,0,1-4.34,1.82,6.06,6.06,0,0,1-6-6V11.33a1.53,1.53,0,0,1,2.57-1.12s0,0,.05,0a1.49,1.49,0,0,1,.45,1.07v6.93a3,3,0,0,0,3,3,2.93,2.93,0,0,0,2.13-.87,2.86,2.86,0,0,0,.91-2.09V11.34a1.54,1.54,0,0,1,.44-1.07,1.37,1.37,0,0,1,1.06-.46,1.53,1.53,0,0,1,1.09.46,1.43,1.43,0,0,1,.48,1.07Z"/><path class="cls-2" d="M207.14,11.5A4.74,4.74,0,0,1,209,10.24a5.53,5.53,0,0,1,2.12-.46,2,2,0,0,1,1.4.44,1.39,1.39,0,0,1,.45,1.06,1.5,1.5,0,0,1-.45,1.09,1.48,1.48,0,0,1-1.08.47q-2.7,0-4.27,4.38v5.51a1.45,1.45,0,0,1-.46,1.09,1.55,1.55,0,0,1-1.12.44A1.53,1.53,0,0,1,204,22.73h0V11.29a1.41,1.41,0,0,1,.45-1.07,1.54,1.54,0,0,1,1.1-.43,1.6,1.6,0,0,1,1.12.43,1.42,1.42,0,0,1,.46,1.07Z"/><path class="cls-2" d="M222.8,12.51a4.12,4.12,0,0,0-2.7,1.05,3.8,3.8,0,0,0-1.21,2h8.2a3.91,3.91,0,0,0-1.41-2,5,5,0,0,0-2.88-1.1m7,4.11a1.31,1.31,0,0,1-.42,1,1.51,1.51,0,0,1-1.11.4H219a3.5,3.5,0,0,0,1,1.91,4.09,4.09,0,0,0,2.71,1.29,4.28,4.28,0,0,0,3.09-.72A1.52,1.52,0,0,1,227,20a1.19,1.19,0,0,1,1,.37,1.31,1.31,0,0,1,.05,1.84l-.05,0a7.22,7.22,0,0,1-5.12,1.9,6.79,6.79,0,0,1-5.07-2.13,7.34,7.34,0,0,1,0-10.22,6.59,6.59,0,0,1,4.94-2.14,6.79,6.79,0,0,1,4.89,1.9,7,7,0,0,1,2.16,4.83Z"/><path class="cls-2" d="M243.58,10.23a1.62,1.62,0,0,1,2.24,0,1.54,1.54,0,0,1,.44,1.15V22.69a1.5,1.5,0,0,1-1.54,1.56,1.57,1.57,0,0,1-1.58-1.56V11.38a1.54,1.54,0,0,1,.44-1.15m2.68-4.74V6.1a1.59,1.59,0,0,1-.44,1.13,1.49,1.49,0,0,1-1.1.46,1.59,1.59,0,0,1-1.58-1.59V5.49a1.58,1.58,0,0,1,1.58-1.56,1.52,1.52,0,0,1,1.54,1.56"/><path class="cls-2" d="M260.21,11.35a1.54,1.54,0,0,1,.66,1,1.63,1.63,0,0,1-.19,1.18,1.53,1.53,0,0,1-1,.65,1.46,1.46,0,0,1-1.18-.25,5.33,5.33,0,0,0-2.68-1.06,2.66,2.66,0,0,0-1.72.52c-.31.21-.47.41-.47.56a.77.77,0,0,0,.07.37,1.1,1.1,0,0,0,.31.26,5.81,5.81,0,0,0,2.12.69h0a12.54,12.54,0,0,1,2.81.87,4.1,4.1,0,0,1,1.88,1.59,3.87,3.87,0,0,1,.61,2,4,4,0,0,1-1.83,3.37,6.52,6.52,0,0,1-3.69,1.22,8.32,8.32,0,0,1-5.16-2,1.46,1.46,0,0,1-.53-1,1.33,1.33,0,0,1,.34-1.11,1.37,1.37,0,0,1,1.05-.59,1.44,1.44,0,0,1,1.12.35,4.9,4.9,0,0,0,3.19,1.28,3.73,3.73,0,0,0,2-.56c.34-.29.52-.53.52-.74a.78.78,0,0,0-.09-.42,1,1,0,0,0-.37-.34,6.29,6.29,0,0,0-2.33-.81h0a11.43,11.43,0,0,1-2.68-.84,4.59,4.59,0,0,1-1.84-1.6,3.44,3.44,0,0,1-.49-1.83,3.89,3.89,0,0,1,1.67-3.28,6.15,6.15,0,0,1,3.58-1.07,7.75,7.75,0,0,1,4.33,1.59"/></g></g></svg>