<svg xmlns="http://www.w3.org/2000/svg" viewBox="0 0 50.04 60.5"><defs><style>.cls-1{fill:#14ce4f;}.cls-2{fill:none;stroke:#14ce4f;stroke-miterlimit:10;}</style></defs><title>youtube-outline</title><g id="Camada_2" data-name="Camada 2"><g id="Camada_1-2" data-name="Camada 1"><path class="cls-1" d="M41.85,27.34H8.19A8,8,0,0,0,0,35.06V52.78A8,8,0,0,0,8.19,60.5H41.85A8,8,0,0,0,50,52.78V35.06A8,8,0,0,0,41.85,27.34ZM10.42,54.76H7V36H3.51V33.3H5l9.66,0v2.81H10.42ZM23.08,38.85,23,54.65H20.14V52.59c-.74,1.61-3.73,2.9-5.29,1.78-.84-.6-.81-1.65-.89-2.56-.05-.51,0-1.63,0-3.14V38.82h3.5l0,10a20.43,20.43,0,0,0,0,2.42c.5,1.51,1.8.69,2.09-.08a16,16,0,0,0,0-2.41v-10h3.51Zm5.09,14.32-.26,1.32-2.85,0V33.32h3.42l0,6.16c3.24-2.56,5.62-.67,5.62,2.49v8.24C34.1,54.22,31.81,56.51,28.17,53.17Zm16.91-3.33a4.38,4.38,0,0,1-3.89,5h0c-2.37.22-5-1.52-5-5.69V44.23a11,11,0,0,1,.44-3.47,4,4,0,0,1,1.46-2c2.11-1.5,6.28-1,6.71,1.92A34,34,0,0,1,45,44.91v2.23H39V51a1.44,1.44,0,0,0,1.45,1.43H41A1.44,1.44,0,0,0,42.42,51V49.15H45a5.4,5.4,0,0,1,.08.69Z"/><path class="cls-1" d="M31.52,41.54v9.32a1.56,1.56,0,0,1-3.05,0V41.54a1.55,1.55,0,0,1,3.05,0Z"/><path class="cls-1" d="M42.41,42.5l0,2H39l0-2a1.58,1.58,0,0,1,1.57-1.57h.22A1.58,1.58,0,0,1,42.41,42.5Z"/><path class="cls-2" d="M31.57,22.31a2.32,2.32,0,0,0,.84,1.06,2.36,2.36,0,0,0,1.42.4,2.25,2.25,0,0,0,1.34-.42,3.17,3.17,0,0,0,1-1.25l-.06,1.37H40V7H36.91V19.77A1.29,1.29,0,0,1,35.3,21a1.31,1.31,0,0,1-1-1.27V7H31.17V18.09c0,1.42,0,2.37.07,2.85A4.65,4.65,0,0,0,31.57,22.31Z"/><path class="cls-2" d="M28.87,10a5.39,5.39,0,0,0-.72-1.71,3.79,3.79,0,0,0-1.49-1.36,4.82,4.82,0,0,0-2.3-.51,4,4,0,0,0-4.05,3,13.66,13.66,0,0,0-.39,3.7l-.12,4.33A17.63,17.63,0,0,0,20,20.63a5.32,5.32,0,0,0,.73,1.88,3.14,3.14,0,0,0,1.45,1.15,5.85,5.85,0,0,0,2.27.39,5,5,0,0,0,2.13-.45,3.79,3.79,0,0,0,1.51-1.39,5.53,5.53,0,0,0,.77-2,24.68,24.68,0,0,0,.18-3.42V12.65A14.57,14.57,0,0,0,28.87,10ZM26,19.52a1.53,1.53,0,1,1-3.05,0V10.84a1.53,1.53,0,1,1,3.05,0Z"/><polygon class="cls-2" points="12.19 24.06 15.82 24.06 15.82 11.36 20.16 0.5 16.17 0.5 13.87 8.57 11.54 0.62 7.62 0.62 12.18 11.45 12.19 24.06"/></g></g></svg>