<svg xmlns="http://www.w3.org/2000/svg" viewBox="0 0 51.18 60"><defs><style>.cls-1{fill:#211f21;}</style></defs><title>Ativo 4</title><g id="Camada_2" data-name="Camada 2"><g id="Camada_1-2" data-name="Camada 1"><path class="cls-1" d="M3.73,19.57H3.58A3.58,3.58,0,0,0,0,23.15V38.72A3.58,3.58,0,0,0,3.58,42.3h.15A3.58,3.58,0,0,0,7.3,38.72V23.15a3.59,3.59,0,0,0-3.57-3.58Z"/><path class="cls-1" d="M9,44.72A3.28,3.28,0,0,0,12.31,48h3.51v8.42A3.58,3.58,0,0,0,19.4,60h.15a3.58,3.58,0,0,0,3.58-3.58V48h4.92v8.42A3.58,3.58,0,0,0,31.62,60h.16a3.58,3.58,0,0,0,3.57-3.58V48h3.52a3.29,3.29,0,0,0,3.29-3.28V20.14H9Z"/><path class="cls-1" d="M33.84,5.23,36.63.92A.6.6,0,0,0,36.45.1a.56.56,0,0,0-.81.18l-2.9,4.45a19.08,19.08,0,0,0-14.3,0L15.55.28A.57.57,0,0,0,14.73.1a.59.59,0,0,0-.18.82l2.79,4.31c-5,2.47-8.43,7.12-8.43,12.45,0,.33,0,.65.05,1H42.22c0-.33.05-.65.05-1,0-5.33-3.4-10-8.43-12.45Zm-16,7.71a1.6,1.6,0,1,1,1.6-1.6,1.6,1.6,0,0,1-1.6,1.6Zm15.42,0a1.6,1.6,0,1,1,1.6-1.6,1.6,1.6,0,0,1-1.6,1.6Z"/><path class="cls-1" d="M47.6,19.57h-.15a3.58,3.58,0,0,0-3.58,3.58V38.72a3.6,3.6,0,0,0,3.58,3.58h.15a3.59,3.59,0,0,0,3.58-3.58V23.15a3.59,3.59,0,0,0-3.58-3.58Z"/></g></g></svg>