<svg xmlns="http://www.w3.org/2000/svg" viewBox="0 0 59.29 62"><defs><style>.cls-1{fill:none;stroke:#c900de;stroke-miterlimit:10;stroke-width:2px;}</style></defs><title>apple-podcasts-icon</title><g id="Camada_2" data-name="Camada 2"><g id="Camada_1-2" data-name="Camada 1"><path class="cls-1" d="M34.92,60.56a31.7,31.7,0,0,1-5.28.44,32.25,32.25,0,0,1-4.84-.37C23.74,56.06,21.7,44,22.7,40.37c.89-3.25,6-3.7,7.15-3.7s6.26.45,7.15,3.7C38,44,36,55.94,34.92,60.56Z"/><circle class="cls-1" cx="29.64" cy="27.23" r="6.84"/><path class="cls-1" d="M29.64,10.72A18.92,18.92,0,0,0,19.31,45.49a26,26,0,0,1,.08-4.83,15.06,15.06,0,1,1,20.86-.34,24,24,0,0,1,.16,4.88A18.92,18.92,0,0,0,29.64,10.72Z"/><path class="cls-1" d="M29.64,1A28.64,28.64,0,0,0,20.8,56.89c-.24-1.33-.5-2.83-.73-4.39a24.78,24.78,0,1,1,19.59-.19c-.23,1.57-.49,3.08-.73,4.44A28.65,28.65,0,0,0,29.64,1Z"/></g></g></svg>