<svg xmlns="http://www.w3.org/2000/svg" viewBox="0 0 1322.05 1321.99"><defs><style>.cls-1{fill:#2a282d;}</style></defs><title>background-icon</title><g id="Camada_2" data-name="Camada 2"><g id="Camada_1-2" data-name="Camada 1"><path class="cls-1" d="M1009.83,196.69a414.51,414.51,0,0,0-145.7-142.3c-191.5-110.8-435.8-46.8-552,142a408,408,0,0,0-178.5,97.4c-162.9,151.6-178.5,408.3-37.8,579.2a427.4,427.4,0,0,0,35.8,202.8c68.7,154.3,219.1,246,375.9,246a399.6,399.6,0,0,0,153.2-30.6,403.85,403.85,0,0,0,154.6,30.8,415,415,0,0,0,45.8-2.6c219.3-25.1,380.1-223.6,364.6-446.1a421,421,0,0,0,87.9-185.4C1358,467.69,1222.43,250.59,1009.83,196.69ZM835.63,1016c-29.3,89-91.4,161.5-174.8,203.6-82.3-41.7-145.4-115.5-174.7-203.5.6-.1,1.2-.3,1.7-.4,6.9-1.3,13.7-2.8,20.5-4.5,1.3-.3,2.5-.7,3.8-1,6.8-1.7,13.6-3.6,20.3-5.7.2-.1.5-.1.8-.2,6.8-2.2,13.6-4.5,20.3-7l3.9-1.5c6.5-2.5,12.9-5.2,19.2-8,1.2-.5,2.4-1.1,3.6-1.7,6.5-3,12.9-6.1,19.2-9.4.1-.1.2-.1.4-.2,6.4-3.4,12.7-6.9,18.9-10.7,1.2-.7,2.3-1.4,3.5-2.1q9-5.4,17.7-11.4c1.1-.8,2.2-1.5,3.3-2.3,6-4.2,11.9-8.5,17.7-13a408.61,408.61,0,0,0,166.8,77.2C830.23,1014.89,832.93,1015.49,835.63,1016Zm132.7-761.3A362.11,362.11,0,0,1,992.53,524a10.09,10.09,0,0,1-1.5-.7c-6.4-3.1-12.9-6.1-19.5-8.8-1-.4-2-.8-3.1-1.3a386.45,386.45,0,0,0-41.6-14.5c-1.2-.3-2.3-.7-3.5-1q-10.2-2.85-20.4-5.1c-1.2-.3-2.5-.5-3.7-.8-6.9-1.5-13.9-2.8-20.9-3.9-.2,0-.4-.1-.6-.1-7-1.1-14.1-1.9-21.2-2.6-1.5-.1-2.9-.3-4.4-.4-6.8-.6-13.7-1.1-20.6-1.3-1.5-.1-2.9-.1-4.4-.1-7.2-.2-14.4-.3-21.7-.1A423.5,423.5,0,0,0,715,320.89c-1.8-2-3.7-4.1-5.6-6.1C784.73,260.29,876.83,238.79,968.33,254.69Zm-129.1,468.2-24.1,14.6,11,26.3c1.7,4.1,3.3,8.1,4.8,12.2.5,1.4,1,2.7,1.5,4.1,1,2.8,2,5.5,2.9,8.3.5,1.6,1,3.2,1.6,4.8.8,2.6,1.6,5.1,2.4,7.7l1.5,5.1c.7,2.5,1.4,5.1,2,7.6.4,1.7.9,3.4,1.3,5.1.6,2.7,1.2,5.3,1.8,8,.3,1.6.7,3.1,1,4.7.6,3.1,1.2,6.2,1.7,9.4.2,1.1.4,2.3.6,3.4.7,4.2,1.3,8.5,1.9,12.8.1,1,.2,2.1.4,3.2.4,3.2.7,6.5,1,9.7.1,1.6.2,3.1.4,4.7.2,2.8.4,5.5.6,8.3.1,1.7.2,3.4.2,5.1.1,2.7.2,5.3.2,8,0,1.7.1,3.5.1,5.2,0,2.7,0,5.4-.1,8,0,1.7-.1,3.3-.1,5-.1,2.9-.3,5.8-.4,8.7-.1,1.4-.1,2.9-.2,4.3-.3,4-.6,8.1-1.1,12.1a2.2,2.2,0,0,1-.1.8c-.4,4-.9,7.9-1.5,11.9-3.3-.6-6.7-1.1-10-1.8a343.41,343.41,0,0,1-158.5-80l-21.1-18.9-21.2,18.8c-3.3,2.9-6.6,5.7-9.9,8.5-1.1.9-2.2,1.8-3.3,2.6-2.3,1.8-4.6,3.7-6.9,5.5-1.3,1-2.7,2-4,3-2.1,1.6-4.3,3.2-6.5,4.7-1.4,1-2.8,2-4.3,3-2.2,1.5-4.3,2.9-6.5,4.4-1.4.9-2.9,1.9-4.3,2.8l-6.9,4.2c-1.4.8-2.7,1.7-4.1,2.5-2.7,1.6-5.4,3.1-8.1,4.6-1,.6-2,1.1-3,1.7-3.7,2-7.5,3.9-11.3,5.8-1,.5-1.9.9-2.9,1.4-2.9,1.4-5.8,2.7-8.7,4-1.4.6-2.9,1.2-4.4,1.8-2.5,1-5,2.1-7.5,3.1l-4.8,1.8c-2.4.9-4.9,1.8-7.3,2.7-1.6.6-3.2,1.1-4.9,1.7l-7.5,2.4c-1.6.5-3.1,1-4.7,1.4-2.8.8-5.6,1.6-8.4,2.3-1.3.3-2.6.7-3.9,1.1-4.1,1-8.3,2-12.4,2.9h0c-3.9.8-7.8,1.6-11.7,2.3-.5-3.4-1-6.8-1.4-10.2a361,361,0,0,1,25.6-178.2l11-26.3-24.1-14.7c-6.3-3.8-12.3-7.9-18.3-12-.9-.6-1.9-1.3-2.8-1.9-5.6-4-11.1-8.2-16.5-12.5-1-.8-2.1-1.7-3.1-2.6-5.3-4.4-10.6-8.9-15.6-13.6-.7-.7-1.5-1.4-2.2-2.1-5-4.8-10-9.7-14.7-14.7a6.47,6.47,0,0,1-.8-.9c-4.8-5.2-9.4-10.6-13.9-16-.8-.9-1.6-1.9-2.3-2.8-4.3-5.3-8.4-10.8-12.4-16.4-.8-1.1-1.5-2.1-2.3-3.2-4-5.7-7.8-11.6-11.5-17.6-.4-.7-.8-1.4-1.3-2.2-3.6-5.9-7-12-10.2-18.2a10.91,10.91,0,0,0-.6-1.1c3.1-1.5,6.1-3.1,9.2-4.6a342.75,342.75,0,0,1,174.6-30.3l28,2.6,6.2-27.9c1-4.3,2-8.6,3.1-12.8.4-1.4.8-2.8,1.1-4.1.8-2.9,1.6-5.7,2.4-8.5l1.5-4.8c.8-2.6,1.6-5.2,2.5-7.7.6-1.7,1.1-3.3,1.7-5,.9-2.5,1.8-5,2.8-7.5.6-1.6,1.2-3.2,1.9-4.8,1-2.6,2.1-5.1,3.2-7.6.6-1.5,1.2-2.9,1.9-4.4,1.3-2.9,2.6-5.8,4-8.7.5-1,1-2.1,1.5-3.1,1.9-3.9,3.8-7.7,5.9-11.5l1.5-2.7c1.6-2.9,3.1-5.7,4.8-8.5.8-1.4,1.6-2.7,2.4-4,1.4-2.4,2.8-4.7,4.3-7,.9-1.4,1.8-2.9,2.8-4.3,1.4-2.2,2.9-4.4,4.4-6.6l3-4.2c1.5-2.2,3.1-4.3,4.7-6.5,1-1.3,2-2.7,3-4,1.8-2.3,3.6-4.6,5.4-6.8.9-1.1,1.8-2.2,2.6-3.3,2.6-3.2,5.3-6.3,8-9.4.1-.1.2-.3.4-.4,2.6-3,5.4-5.9,8.1-8.8,2.3,2.5,4.8,4.9,7,7.4,5.1,5.7,9.9,11.5,14.6,17.4A358,358,0,0,1,750.23,525l6.2,27.9,28-2.6q6.45-.6,12.9-.9c1.5-.1,2.9-.1,4.3-.2l8.6-.3h5.1c2.6,0,5.3,0,7.9.1,1.7,0,3.5.1,5.2.2,2.6.1,5.2.2,7.8.4l5.1.3c2.7.2,5.5.5,8.2.7,1.5.2,3.1.3,4.6.5l9.7,1.2c1,.1,2,.3,3,.4,4.2.6,8.5,1.4,12.7,2.2.7.1,1.4.3,2.1.4,3.5.7,6.9,1.4,10.4,2.2,1.3.3,2.7.6,4,1l8.4,2.1c1.5.4,3,.8,4.4,1.2,2.7.8,5.3,1.5,7.9,2.4,1.5.5,3,.9,4.5,1.4l7.8,2.7c1.5.5,2.9,1,4.4,1.6,2.8,1,5.5,2.1,8.2,3.2,1.3.5,2.5,1,3.8,1.5,3.5,1.4,6.9,2.9,10.4,4.5l1.5.6c3.6,1.7,7.2,3.4,10.7,5.2-1.6,3.1-3.2,6.3-4.9,9.4C933.13,647.19,890.43,691.69,839.23,722.89ZM610.63,316c-4.8,5.2-9.4,10.4-13.9,15.8-.9,1-1.7,2.1-2.6,3.1-4.5,5.5-8.9,11.1-13.1,16.8-.2.2-.3.4-.5.6-4.3,5.8-8.4,11.8-12.4,17.9-.8,1.2-1.5,2.3-2.3,3.5-3.8,5.9-7.5,11.9-10.9,18a39,39,0,0,0-1.9,3.5c-3.5,6.3-6.9,12.7-10.2,19.1-.1.1-.1.2-.2.3-3.2,6.6-6.2,13.2-9.1,20-.5,1.2-1.1,2.5-1.6,3.7-2.7,6.5-5.3,13.1-7.7,19.8-.5,1.3-.9,2.6-1.3,3.8-2.4,7-4.8,14-6.8,21.2a404,404,0,0,0-179.6,37.4c-2.5,1.1-4.9,2.3-7.4,3.5a356.42,356.42,0,0,1,24.2-269.5,344.3,344.3,0,0,1,258.6,60A10,10,0,0,1,610.63,316Zm-311.8,302.9c.3.5.6,1,.9,1.6,3.3,6.3,6.8,12.4,10.5,18.5.7,1.1,1.4,2.3,2.1,3.4q5.55,9.15,11.7,18c.1.2.3.4.4.6,4.1,6,8.5,11.8,12.9,17.6.8,1.1,1.7,2.2,2.5,3.3,4.3,5.5,8.8,10.9,13.4,16.2l2.7,3c4.8,5.3,9.6,10.6,14.6,15.7l.3.3c5.1,5.1,10.4,10.1,15.8,15,1,.9,2,1.9,3.1,2.8,5.2,4.7,10.6,9.2,16.1,13.6,1.1.9,2.2,1.7,3.2,2.5,5.8,4.5,11.6,8.9,17.6,13.2a430.37,430.37,0,0,0-20.5,185.3c.3,2.7.6,5.5,1,8.2-92.2-.9-179.2-38.7-244.2-106.6C176.43,758.29,225.83,674.39,298.83,618.89Zm615.8,338.6c.1-.6.1-1.2.2-1.8.9-7.1,1.6-14.2,2.2-21.2l.3-3.9c.5-7.2.8-14.5,1-21.7v-.5q.15-10.95-.3-21.9c-.1-1.4-.1-2.7-.2-4.1-.3-7.1-.8-14.1-1.5-21.2-.1-1.3-.3-2.6-.4-3.9-.8-7.2-1.7-14.4-2.8-21.6v-.3c-1.2-7.2-2.6-14.4-4.1-21.6-.3-1.3-.6-2.7-.9-4-1.5-6.9-3.3-13.8-5.2-20.6-.4-1.3-.8-2.6-1.1-3.9-2-7.1-4.2-14.2-6.6-21.2a417.07,417.07,0,0,0,123.6-137.7c1.4-2.5,2.8-5,4.1-7.6,73.9,56,122.4,138.5,136,232.2C1094.33,917.89,1005.93,956.29,914.63,957.49Zm-82.2-846.2a352.07,352.07,0,0,1,88.3,72.8c-93-2.6-183.8,27-259,85.3l-.8-.7-.8.8a408.42,408.42,0,0,0-259.2-85C507.33,62.09,687.73,27.59,832.43,111.29Zm-655.5,230.9h0a346.3,346.3,0,0,1,95.7-63.3c-31.4,89.6-31.8,186.8-.6,277.9l-.9.5.4.9c-76.7,54.3-133,134.3-159.7,225.1C30.43,642.29,53.93,456.59,176.93,342.19Zm13.2,706.6a357.92,357.92,0,0,1-29.4-112.3c71.4,56.1,158.4,86.6,249.6,86.6,3.1,0,6.3-.1,9.5-.2l.2,1.1,1.2-.1A421.12,421.12,0,0,0,582,1248.09C425,1283.49,258.93,1203.39,190.13,1048.79Zm663.8,205.6a343.25,343.25,0,0,1-114-6.2c77-53.6,133.3-132,160.5-224.3l1,.1.3-1.2c2.8.1,5.7.2,8.5.2,90.5,0,179-31,250.7-87C1145.83,1099.09,1019.63,1235.39,853.93,1254.39Zm396.7-579.6a355.61,355.61,0,0,1-40.8,108.2,415.58,415.58,0,0,0-160-225l.4-1-.7-.4c30.7-89.9,30-188.4-.9-277.8C1196,344.09,1284.23,508.39,1250.63,674.79Z"/></g></g></svg>