<svg xmlns="http://www.w3.org/2000/svg" viewBox="0 0 135.86 128"><defs><style>.cls-1{fill:#211f21;}.cls-2{fill:#c900dd;}.cls-3{fill:none;stroke:#202020;stroke-miterlimit:10;stroke-width:2px;}</style></defs><title>bike-icon</title><g id="Camada_2" data-name="Camada 2"><g id="Camada_1-2" data-name="Camada 1"><rect class="cls-1" x="36.47" y="59.5" width="20.59" height="5.72" rx="2.34" ry="2.34"/><circle class="cls-1" cx="71.94" cy="11.44" r="11.44"/><ellipse class="cls-2" cx="67.36" cy="12.01" rx="2.86" ry="4.58"/><path class="cls-1" d="M56.49,21.17c4.88-1.65,9.7.84,11.31,4.11,2.51,5.13-4.26,12.42-4.26,12.42s-4,7.93-7.23,15.5c-.54,1.28,21.78,10.41,24.21,13.73,1.83,2.51-9.89,33.72-12.59,37.76-2.29,3.43-9.19.52-9.15-4.58.07-9.66,9.56-27.21,9.15-27.46-5.72-3.43-27.26-10.23-27.5-20.45-.14-6.1,4.62-17.3,4.62-17.3S49.7,23.46,56.49,21.17Z"/><path class="cls-1" d="M57.06,27.46c.35-1.58,2.56-3.3,4.58-2.29,2.29,1.15,11.44,6.87,20.59,10.3,5.52,2.07,17.27,4.39,19.48,7.29.86,1.13.6,4.47-2,5.73s-24.07-5.72-26.09-6.73C71.36,40.62,54.77,37.76,57.06,27.46Z"/><rect class="cls-2" x="51.91" y="45.19" width="11.44" height="16.02" rx="4.68" ry="4.68" transform="translate(20.7 -15.99) rotate(19.2)"/><circle class="cls-3" cx="23.88" cy="102.97" r="22.88"/><circle class="cls-3" cx="111.98" cy="104.12" r="22.88"/><polyline class="cls-3" points="98.25 64.07 59.56 102.97 23.88 102.97 45.62 72.08 95.96 57.21"/><line class="cls-3" x1="92.87" y1="47.67" x2="111.98" y2="104.12"/><line class="cls-3" x1="45.62" y1="61.78" x2="60.5" y2="102.97"/><rect class="cls-1" x="91.39" y="42.33" width="16.02" height="4.58" rx="1.87" ry="1.87" transform="translate(-8.66 58.58) rotate(-31.53)"/><path class="cls-2" d="M67.42,13.19c-1,7.38,5.7,13.2,4.36,20.45-.61,3.32-2.46,4.73-4.6,7a5.4,5.4,0,0,0-.89,1c-1.47,2.84,1.88,8.89-2.66,10.19a.75.75,0,0,0,.4,1.45A4.73,4.73,0,0,0,67.63,49c.43-3.13-1.11-4.91,1.21-7.65,1.18-1.39,2.35-2.2,3.24-3.88,4.59-8.61-4.3-15.66-3.16-24.23.12-1-1.38-.95-1.5,0Z"/></g></g></svg>