<svg id="Camada_1" data-name="Camada 1" xmlns="http://www.w3.org/2000/svg" viewBox="0 0 150 150"><defs><style>.cls-1{fill:#211f21;}</style></defs><title>ÍCONES BIONOTE</title><path class="cls-1" d="M133.28,116.78c-14.4,0-20.6-5-24.39-8-1.92-1.55-2.89-2.28-3.84-2a100.22,100.22,0,0,1-30,4.47,100.63,100.63,0,0,1-29.69-4.35,75.42,75.42,0,0,1-13.58-5.7C18.24,93.81,10.5,83.25,10.5,72.22c0-21.5,28.93-39,64.5-39s64.5,17.5,64.5,39c0,8.42-4.46,16.65-12.56,23.17-2.16,1.74-3.12,3.61-3,5.73.55,6.82,12.4,13.66,12.52,13.73l3,1.73-3.47.14Q134.62,116.78,133.28,116.78Zm-27.8-12.1c1.57,0,3,1.13,4.66,2.49,3.53,2.85,9.27,7.46,22.53,7.6-3.83-2.65-10.23-7.89-10.68-13.49-.22-2.79,1-5.29,3.69-7.45,7.73-6.22,11.82-13.7,11.82-21.61,0-20.4-28-37-62.5-37s-62.5,16.6-62.5,37c0,10.28,7.36,20.19,20.19,27.2A73.58,73.58,0,0,0,45.91,105,98.55,98.55,0,0,0,75,109.22a98.51,98.51,0,0,0,29.45-4.37A3.47,3.47,0,0,1,105.48,104.68Z"/><path class="cls-1" d="M29.07,60.87h6l-2.08,9a7.46,7.46,0,0,1,4.29-1.42,5.94,5.94,0,0,1,2.45.51,6.3,6.3,0,0,1,2,1.38,6.68,6.68,0,0,1,1.33,2.08A6.78,6.78,0,0,1,43.56,75a11.11,11.11,0,0,1-.35,2.82,10.32,10.32,0,0,1-1,2.46,9.7,9.7,0,0,1-3.57,3.55,10,10,0,0,1-5,1.3,6.81,6.81,0,0,1-2.2-.35,5.18,5.18,0,0,1-1.67-.91l-.23,1H26.5l4.9-21.33h-3Zm7.52,10.25a5.9,5.9,0,0,0-2.19.44,7.24,7.24,0,0,0-2,1.21l-2,8.46a3.22,3.22,0,0,0,1.26.88,5.66,5.66,0,0,0,2.24.37A6,6,0,0,0,36.26,82a6.37,6.37,0,0,0,2.07-1.4,7.13,7.13,0,0,0,1.49-2.24,7.57,7.57,0,0,0,.57-3,5.39,5.39,0,0,0-.28-1.77,3.91,3.91,0,0,0-.78-1.32,3.53,3.53,0,0,0-1.2-.83A4.06,4.06,0,0,0,36.59,71.12Z"/><path class="cls-1" d="M48.86,60.87h6.2L50.13,82.2h2.65l-.6,2.65H46.41l4.91-21.33H48.23Z"/><path class="cls-1" d="M67,83.77a7.89,7.89,0,0,1-2.08,1,7.05,7.05,0,0,1-2.15.33,5.94,5.94,0,0,1-2.45-.51,6.3,6.3,0,0,1-2-1.38A6.68,6.68,0,0,1,57,81.16a6.78,6.78,0,0,1-.48-2.56,10.34,10.34,0,0,1,.79-4.1,9.69,9.69,0,0,1,2.13-3.21,9.45,9.45,0,0,1,3.15-2.08,9.73,9.73,0,0,1,3.81-.74,6.67,6.67,0,0,1,2.17.34,5.18,5.18,0,0,1,1.67.91l.2-.84h3.1L70.41,82.2H72.9l-.61,2.65H66.7Zm-3.5-1.29a5.25,5.25,0,0,0,1.16-.14A7.84,7.84,0,0,0,65.74,82a8,8,0,0,0,1-.5,6.37,6.37,0,0,0,.85-.6l2-8.54a3.14,3.14,0,0,0-1.25-.87,5.79,5.79,0,0,0-2.22-.36,6,6,0,0,0-2.34.48A6.56,6.56,0,0,0,61.72,73a7,7,0,0,0-1.48,2.25,7.65,7.65,0,0,0-.57,3A5.12,5.12,0,0,0,60,80.05a3.74,3.74,0,0,0,.77,1.32,3.3,3.3,0,0,0,1.19.82A4.06,4.06,0,0,0,63.45,82.48Z"/><path class="cls-1" d="M79.08,60.87h6l-2.08,9a7.43,7.43,0,0,1,4.28-1.42,5.91,5.91,0,0,1,2.45.51,6.23,6.23,0,0,1,2,1.38,6.48,6.48,0,0,1,1.32,2.08A6.78,6.78,0,0,1,93.57,75a10.68,10.68,0,0,1-.36,2.82,9.92,9.92,0,0,1-1,2.46,9.32,9.32,0,0,1-1.56,2,9.56,9.56,0,0,1-2,1.53,10,10,0,0,1-5,1.3,6.83,6.83,0,0,1-2.21-.35,5.13,5.13,0,0,1-1.66-.91l-.23,1H76.5l4.9-21.33h-3ZM86.6,71.12a6,6,0,0,0-2.2.44,7.18,7.18,0,0,0-2,1.21l-2,8.46a3.18,3.18,0,0,0,1.25.88,5.68,5.68,0,0,0,2.25.37A5.88,5.88,0,0,0,86.26,82a6.37,6.37,0,0,0,2.07-1.4,7,7,0,0,0,1.49-2.24,7.57,7.57,0,0,0,.57-3,5.14,5.14,0,0,0-.28-1.77,3.74,3.74,0,0,0-.77-1.32,3.68,3.68,0,0,0-1.21-.83A4,4,0,0,0,86.6,71.12Z"/><path class="cls-1" d="M98.87,60.87h6.2L100.13,82.2h2.65l-.6,2.65H96.42l4.9-21.33H98.24Z"/><path class="cls-1" d="M117,83.77a8,8,0,0,1-2.07,1,7.1,7.1,0,0,1-2.15.33,5.91,5.91,0,0,1-2.45-.51,6.3,6.3,0,0,1-2-1.38A6.5,6.5,0,0,1,107,81.16a6.78,6.78,0,0,1-.49-2.56,10.51,10.51,0,0,1,.79-4.1,9.71,9.71,0,0,1,2.14-3.21,9.31,9.31,0,0,1,3.14-2.08,9.81,9.81,0,0,1,3.82-.74,6.71,6.71,0,0,1,2.17.34,5.13,5.13,0,0,1,1.66.91l.2-.84h3.1L120.42,82.2h2.48l-.6,2.65h-5.6Zm-3.5-1.29a5.34,5.34,0,0,0,1.17-.14,8.25,8.25,0,0,0,1.13-.35,8,8,0,0,0,1-.5,6.24,6.24,0,0,0,.84-.6l2-8.54a3.07,3.07,0,0,0-1.25-.87,5.72,5.72,0,0,0-2.22-.36,6,6,0,0,0-2.34.48A6.41,6.41,0,0,0,111.73,73a7,7,0,0,0-1.48,2.25,7.65,7.65,0,0,0-.57,3,5.37,5.37,0,0,0,.27,1.76,3.9,3.9,0,0,0,.77,1.32,3.25,3.25,0,0,0,1.2.82A4,4,0,0,0,113.45,82.48Z"/></svg>