<svg xmlns="http://www.w3.org/2000/svg" viewBox="0 0 144.02 127"><defs><style>.cls-1{fill:#211f21;}.cls-2{fill:none;stroke:#6c5470;stroke-miterlimit:10;}.cls-3{fill:#6c5470;}.cls-4{fill:#c900dd;}</style></defs><title>camp-icon</title><g id="Camada_2" data-name="Camada 2"><g id="Camada_1-2" data-name="Camada 1"><circle class="cls-1" cx="60.88" cy="61.22" r="6.36"/><ellipse class="cls-2" cx="54.37" cy="61.37" rx="1.24" ry="2.17"/><ellipse class="cls-2" cx="67.39" cy="61.37" rx="1.24" ry="2.17"/><path class="cls-3" d="M53,63.44c.94,4.5,1.28,8.6,4.83,11.81A41.47,41.47,0,0,0,63,79.07c3.9,2.53,4.37,4.62,4.1,9.21,0,1,1.45,1,1.5,0,.2-3.49.46-7-2.55-9.1-2.57-1.8-5.49-3.21-7.74-5.47C55.51,70.86,55.23,66.8,54.44,63c-.19-.94-1.64-.54-1.44.4Z"/><path class="cls-3" d="M66.63,64A4.21,4.21,0,0,1,66,68.49,34.2,34.2,0,0,1,63.15,71,19.81,19.81,0,0,0,59,75.16c-.51.82.79,1.58,1.29.75,1.64-2.69,4.83-4.41,7-6.59,1.71-1.7,1.52-3.54.73-5.69-.33-.9-1.78-.51-1.45.4Z"/><ellipse class="cls-4" cx="54.06" cy="61.37" rx="1.24" ry="2.17"/><ellipse class="cls-4" cx="67.7" cy="61.37" rx="1.24" ry="2.17"/><path class="cls-1" d="M53.75,69.75c-3.11,1.24-5,3.1-6.21,13.64-.44,3.75-1.06,9.23-.62,10.55.62,1.86,3.1,1.86,3.72.62s.62-16.75,2.48-18c.52-.34.63,42.18.63,42.18,0,3.1,5.58,3.1,6.2.62.33-1.35,0-26.05.62-26.67s0-.62.62,0,.8,25.35,1.24,26.67c.62,1.86,5,2.48,6.2,0,.62-1.24-.51-43.76,0-43.42,1.86,1.24,3.1,16.13,3.1,18s3.72,1.86,3.72,0-.7-13-1.24-14.89c-1.41-5-3.2-8.14-5-9.3C68.09,69,57.49,68.25,53.75,69.75Z"/><path class="cls-4" d="M52.64,63.54c1,4.56,1.32,8.71,4.92,12a41.13,41.13,0,0,0,5.29,3.89c3.8,2.46,4.17,4.39,3.92,8.88-.08,1.44,2.17,1.44,2.25,0,.21-3.65.41-7.22-2.74-9.42-2.55-1.78-5.44-3.18-7.66-5.41-2.78-2.79-3-6.83-3.81-10.51-.3-1.41-2.47-.81-2.17.6Z"/><path class="cls-4" d="M66.27,64.13a3.78,3.78,0,0,1-.49,4.09,32.58,32.58,0,0,1-2.9,2.47A20.48,20.48,0,0,0,58.69,75c-.75,1.24,1.19,2.37,2,1.13,1.61-2.66,4.8-4.36,7-6.52,1.8-1.79,1.65-3.78.82-6-.49-1.35-2.67-.76-2.17.6Z"/><rect class="cls-4" x="65.84" y="88.04" width="4.96" height="6.82" rx="2.48" ry="2.48"/><path class="cls-4" d="M0,127s1.94-12.27,11.62-9c2.21.74,1.35-11.48,9.69-14.85,6.69-2.71,14.2-.65,14.2-.65,3,1.5,9.35-4.1,11.7-6.48,3.15-3.2,17.59-3.1,22.19,0,4.85,3.26,4.85-9,13.89-9a13,13,0,0,1,11.63,6.45S102,87,109.77,87c11.14,0,13.56,11,13.56,11s6.45,4.52,9.68,10.34c2.53,4.55,2.58,18.72,2.58,18.72Z"/><path class="cls-4" d="M103.23,122.4s11.5-39.57,4.6-77.77C107.15,40.9,123.6,30.76,123,34.51c-6.9,44.17-4.6,87.89-4.6,87.89Z"/><path class="cls-4" d="M143.64,30.45a18.66,18.66,0,0,1-4,8.21A18.61,18.61,0,0,1,123.24,58.4a20.52,20.52,0,0,1-2.07.12,18.5,18.5,0,0,1-7-1.37,18.58,18.58,0,0,1-23.86-9.53,18.68,18.68,0,0,1-1.62-9A18.57,18.57,0,0,1,98.48,8.69a18.61,18.61,0,0,1,24.89-6.28,18.37,18.37,0,0,1,6.57,6.3A18.59,18.59,0,0,1,143.64,30.45Z"/></g></g></svg>