<?xml version="1.0" encoding="utf-8"?>
<!-- Generator: Adobe Illustrator 22.0.1, SVG Export Plug-In . SVG Version: 6.00 Build 0)  -->
<svg version="1.1" id="Camada_1" xmlns="http://www.w3.org/2000/svg" xmlns:xlink="http://www.w3.org/1999/xlink" x="0px" y="0px"
	 viewBox="0 0 150 150" style="enable-background:new 0 0 150 150;" xml:space="preserve">
<title>ÍCONES BIONOTE</title>
<g>
	<path d="M138.2,28.5H11.8c-3.6,0-6.5,2.9-6.5,6.5v8.7v67.6v8.7c0,3.6,2.9,6.5,6.5,6.5h126.4c3.6,0,6.5-2.9,6.5-6.5v-8.7V43.8V35
		C144.7,31.4,141.8,28.5,138.2,28.5z M110.4,43.8H39.6l-3.1-10.9h77L110.4,43.8z M9.6,35c0-1.2,1-2.2,2.2-2.2H32l3.9,13.7
		c0,0.1,0,0.1,0.1,0.1c0,0.1,0.1,0.2,0.1,0.3c0.1,0.2,0.2,0.3,0.3,0.4c0.1,0.1,0.1,0.1,0.2,0.2c0.1,0.1,0.3,0.2,0.4,0.3
		c0.1,0,0.1,0.1,0.2,0.1c0.2,0.1,0.5,0.2,0.8,0.2h0H112h0c0.3,0,0.5-0.1,0.8-0.2c0.1,0,0.1-0.1,0.2-0.1c0.2-0.1,0.3-0.2,0.4-0.3
		c0.1-0.1,0.1-0.1,0.2-0.2c0.1-0.1,0.2-0.3,0.3-0.4c0-0.1,0.1-0.2,0.1-0.3c0,0,0.1-0.1,0.1-0.1l3.9-13.7h20.1c1.2,0,2.2,1,2.2,2.2
		v8.7v67.6c0,1.2-1,2.2-2.2,2.2H11.8c-1.2,0-2.2-1-2.2-2.2V43.8L9.6,35z M138.2,122.2H11.8c-1.2,0-2.2-1-2.2-2.2v-2.6
		c0.7,0.2,1.4,0.4,2.2,0.4h126.4c0.8,0,1.5-0.2,2.2-0.4v2.6C140.4,121.2,139.4,122.2,138.2,122.2z"/>
	<path d="M16.2,104.8c0,1.2,1,2.2,2.2,2.2h113.3c1.2,0,2.2-1,2.2-2.2V56.8c0-1.2-1-2.2-2.2-2.2H18.3c-1.2,0-2.2,1-2.2,2.2V104.8z
		 M20.5,59h109v43.6h-109L20.5,59z"/>
	<path d="M99,67.7H51c-7.2,0-13.1,5.9-13.1,13.1C38,88,43.8,93.9,51,93.9c0,0,0,0,0,0H99c0,0,0,0,0,0c7.2,0,13.1-5.9,13.1-13.1
		C112,73.6,106.2,67.7,99,67.7z M86.5,89.5c-1.8-2.6-2.8-5.5-2.8-8.7s1-6.2,2.8-8.7h2.7c-2.1,2.3-3.4,5.4-3.4,8.7
		c0,3.4,1.3,6.4,3.4,8.7H86.5z M60.7,89.5c2.1-2.3,3.4-5.4,3.4-8.7c0-3.3-1.3-6.4-3.4-8.7h2.7c1.8,2.6,2.8,5.5,2.8,8.7
		c0,3.2-1,6.2-2.8,8.7H60.7z M68.6,72.1h12.9c-1.3,2.7-2.1,5.7-2.1,8.7c0,3,0.7,6,2.1,8.7H68.5c1.3-2.7,2.1-5.7,2.1-8.7
		C70.6,77.8,69.9,74.8,68.6,72.1L68.6,72.1z M42.3,80.8c0-4.8,3.9-8.7,8.7-8.7s8.7,3.9,8.7,8.7c0,4.8-3.9,8.7-8.7,8.7
		S42.3,85.6,42.3,80.8z M99,89.5c-4.8,0-8.7-3.9-8.7-8.7c0-4.8,3.9-8.7,8.7-8.7s8.7,3.9,8.7,8.7C107.7,85.6,103.8,89.5,99,89.5z"/>
	<path d="M99,74.3c-3.6,0-6.5,2.9-6.5,6.5c0,3.6,2.9,6.5,6.5,6.5c3.6,0,6.5-2.9,6.5-6.5C105.5,77.2,102.6,74.3,99,74.3z M99,83
		c-1.2,0-2.2-1-2.2-2.2c0-1.2,1-2.2,2.2-2.2s2.2,1,2.2,2.2C101.1,82,100.2,83,99,83z"/>
	<path d="M57.5,80.8c0-3.6-2.9-6.5-6.5-6.5s-6.5,2.9-6.5,6.5c0,3.6,2.9,6.5,6.5,6.5S57.5,84.4,57.5,80.8z M51,83
		c-1.2,0-2.2-1-2.2-2.2c0-1.2,1-2.2,2.2-2.2s2.2,1,2.2,2.2C53.2,82,52.2,83,51,83z"/>
	<path d="M14.1,111.3c1.2,0,2.2-1,2.2-2.2s-1-2.2-2.2-2.2h0c-1.2,0-2.2,1-2.2,2.2S12.8,111.3,14.1,111.3z"/>
	<path d="M136.1,111.3c1.2,0,2.2-1,2.2-2.2s-1-2.2-2.2-2.2h0c-1.2,0-2.2,1-2.2,2.2S134.9,111.3,136.1,111.3L136.1,111.3z"/>
	<path d="M136.1,39.4c1.2,0,2.2-1,2.2-2.2s-1-2.2-2.2-2.2h0c-1.2,0-2.2,1-2.2,2.2S134.9,39.4,136.1,39.4L136.1,39.4z"/>
	<path d="M14.1,39.4c1.2,0,2.2-1,2.2-2.2s-1-2.2-2.2-2.2h0c-1.2,0-2.2,1-2.2,2.2S12.8,39.4,14.1,39.4z"/>
</g>
</svg>
