<svg id="icons" enable-background="new 0 0 64 64" height="512" viewBox="0 0 64 64" width="512" xmlns="http://www.w3.org/2000/svg"><path d="m61 9.5h-58c-1.654 0-3 1.346-3 3v4 31 4c0 1.654 1.346 3 3 3h58c1.654 0 3-1.346 3-3v-4-31-4c0-1.654-1.346-3-3-3zm-12.755 6.999h-32.49l-1.43-4.999h35.35zm-46.245-3.999c0-.551.448-1 1-1h9.244l1.794 6.274c.007.023.022.041.03.063.016.043.037.082.058.122.036.069.077.131.127.188.029.033.058.063.091.093.061.054.126.096.197.133.035.018.065.04.103.053.112.044.231.073.355.073h.003 33.996.003c.124 0 .243-.029.355-.072.037-.014.067-.036.103-.054.071-.038.137-.08.197-.133.033-.029.062-.06.091-.093.05-.057.091-.12.127-.188.021-.04.042-.078.058-.122.009-.022.023-.04.03-.063l1.794-6.274h9.244c.552 0 1 .449 1 1v4 31c0 .552-.448 1-1 1h-58c-.552 0-1-.448-1-1v-31zm59 40h-58c-.552 0-1-.448-1-1v-1.185c.314.113.647.185 1 .185h58c.353 0 .686-.072 1-.185v1.185c0 .552-.448 1-1 1z"/><path d="m4.999 44.499c0 .553.447 1 1 1h52.001c.553 0 1-.447 1-1v-21.998c0-.552-.447-1-1-1h-52.001c-.553 0-1 .448-1 1zm2-20.998h50.001v19.998h-50.001z"/><path d="m43 27.501h-21.999c-3.309 0-6 2.691-6 5.999 0 3.307 2.688 5.996 5.993 6 .003 0 .005.001.007.001h21.999c.002 0 .004-.001.007-.001 3.306-.004 5.993-2.693 5.993-6 0-3.308-2.691-5.999-6-5.999zm-5.718 10c-.826-1.176-1.282-2.544-1.282-4.001s.455-2.823 1.282-3.999h1.258c-.954 1.062-1.54 2.462-1.54 3.999 0 1.538.587 2.938 1.541 4.001zm-11.822 0c.954-1.063 1.541-2.463 1.541-4.001 0-1.537-.586-2.937-1.54-3.999h1.245c.826 1.177 1.281 2.543 1.281 3.999 0 1.457-.456 2.824-1.283 4.001zm3.581-8h5.906c-.613 1.236-.947 2.606-.947 3.999 0 1.394.334 2.764.947 4.001h-5.907c.613-1.237.947-2.607.947-4.001 0-1.393-.334-2.762-.946-3.999zm-12.04 3.999c0-2.205 1.794-3.999 4-3.999s4 1.794 4 3.999c0 2.206-1.794 4-4 4s-4-1.794-4-4zm25.999 4c-2.206 0-4-1.794-4-4 0-2.205 1.794-3.999 4-3.999s4 1.794 4 3.999c0 2.206-1.794 4-4 4z"/><path d="m43 30.5c-1.654 0-3 1.346-3 3s1.346 3 3 3 3-1.346 3-3-1.346-3-3-3zm0 4c-.552 0-1-.448-1-1 0-.551.448-1 1-1s1 .449 1 1c0 .552-.448 1-1 1z"/><path d="m23.979 33.5c0-1.654-1.346-3-3-3s-3 1.346-3 3 1.346 3 3 3 3-1.346 3-3zm-3 1c-.552 0-1-.448-1-1 0-.551.448-1 1-1s1 .449 1 1c0 .552-.449 1-1 1z"/><path d="m4.03 47.501c.552 0 1-.447 1-1s-.448-1-1-1h-.01c-.552 0-.994.447-.994 1s.452 1 1.004 1z"/><path d="m60.03 47.501c.552 0 1-.447 1-1s-.448-1-1-1h-.01c-.552 0-.994.447-.994 1s.452 1 1.004 1z"/><path d="m60.03 14.501c.552 0 1-.448 1-1s-.448-1-1-1h-.01c-.552 0-.994.448-.994 1s.452 1 1.004 1z"/><path d="m4.03 14.501c.552 0 1-.448 1-1s-.448-1-1-1h-.01c-.552 0-.994.448-.994 1s.452 1 1.004 1z"/></svg>