<svg id="Camada_1" data-name="Camada 1" xmlns="http://www.w3.org/2000/svg" viewBox="0 0 152.5 152.5"><defs><style>.cls-1{fill:#211f21;}</style></defs><title>ÍCONES BIONOTE</title><path class="cls-1" d="M112.83,64.94h-4.65V56.6A3.63,3.63,0,0,0,104.55,53H71.61L65,43.65H40a3.64,3.64,0,0,0-3.64,3.64v58.13h0a3.39,3.39,0,0,0,3.4,3.43H99.3a3.37,3.37,0,0,0,3.26-2.41l13.61-37.31v-.24c0-2.28-1.41-4-3.34-4ZM39,47.29a1,1,0,0,1,1-1H63.59l6.65,9.3h34.31a1,1,0,0,1,1,1v8.34H53.27a3.66,3.66,0,0,0-.57,0A3.33,3.33,0,0,0,50,67.35L39,97.41Zm61,58.34a.76.76,0,0,1-.73.56H39.74a.72.72,0,0,1-.59-.3.76.76,0,0,1-.17-.54L52.54,68.16a.76.76,0,0,1,.73-.56h59.56c.51,0,.64.73.67,1.09Zm0,0"/></svg>