<svg xmlns="http://www.w3.org/2000/svg" viewBox="0 0 113.62 114"><defs><style>.cls-1{fill:none;stroke:#c900de;stroke-miterlimit:10;stroke-width:3px;}</style></defs><title>google-podcasts-icon</title><g id="Camada_2" data-name="Camada 2"><g id="Camada_1-2" data-name="Camada 1"><path class="cls-1" d="M63.87,56.8c0,6.58,0,13.15,0,19.73,0,4.81-2.26,7.44-6.39,7.72-4.41.29-7.6-2.24-7.86-7-.36-6.34-.19-12.72-.21-19.09,0-6.89-.07-13.78.05-20.67.07-4,1.88-6.47,5.12-7.41a7.13,7.13,0,0,1,7.89,2.38,6.53,6.53,0,0,1,1.42,4.66Q63.86,46.93,63.87,56.8Z"/><path class="cls-1" d="M39.48,43.07c0,4,.05,7.94,0,11.91-.08,4.7-2.7,7.4-7,7.4s-7-2.57-7.07-7.31q-.12-12.23-.11-24.43c0-4.39,2.74-7.21,6.92-7.24,4.46,0,7.23,2.62,7.3,7.14C39.53,34.72,39.48,38.9,39.48,43.07Z"/><path class="cls-1" d="M88.34,71.06c0,4.08,0,8.15,0,12.23-.07,4.33-2.91,7.23-7,7.26-4.35,0-7-2.71-7.08-7.36q-.06-12.06,0-24.13c0-4.69,2.67-7.42,7-7.42,4.15,0,7,3,7,7.52C88.38,63.12,88.34,67.09,88.34,71.06Z"/><path class="cls-1" d="M63.84,12.58c0,1.46.09,2.93,0,4.38-.27,3.95-2.49,6.2-6.28,6.49s-6.86-1.72-7.67-5.37a25.7,25.7,0,0,1-.05-10.87c.82-3.93,3.82-6,7.77-5.67,3.55.3,6.09,3.11,6.26,7,0,1.35,0,2.71,0,4.06Z"/><path class="cls-1" d="M63.86,101.38c0,1.46.07,2.92,0,4.38a7.09,7.09,0,0,1-14,1.14,28.93,28.93,0,0,1-.24-10,7,7,0,0,1,7.83-6.41c3.8.24,6.33,3.14,6.45,7.41,0,1.14,0,2.29,0,3.43Z"/><path class="cls-1" d="M39.47,79.55c0,1.25,0,2.51,0,3.76-.14,4.64-2.84,7.36-7.16,7.27-4.55-.11-7.23-3-7.14-7.69,0-2.61.07-5.22.2-7.82a6.59,6.59,0,0,1,6.92-6.54c4.19,0,7,2.56,7.17,6.64C39.53,76.63,39.47,78.09,39.47,79.55Z"/><path class="cls-1" d="M88.33,34.3c0,1.46.06,2.93,0,4.39a6.87,6.87,0,0,1-7.17,6.73c-4.1-.07-6.76-2.72-6.86-7-.07-2.81-.09-5.64,0-8.46.16-4,2.92-6.53,6.91-6.58a6.86,6.86,0,0,1,7.09,6.48c.1,1.46,0,2.93,0,4.39Z"/><path class="cls-1" d="M15.62,56.93c0,1.46.07,2.93,0,4.38A6.89,6.89,0,0,1,8.38,68a6.57,6.57,0,0,1-6.8-6.69c-.1-2.81-.11-5.64,0-8.45.16-4.22,2.9-6.84,7-6.85a6.89,6.89,0,0,1,7.06,6.86c.06,1.35,0,2.71,0,4.07Z"/><path class="cls-1" d="M112.06,57a48.84,48.84,0,0,1,0,5,6.79,6.79,0,0,1-6.9,6,6.68,6.68,0,0,1-6.87-6,69.4,69.4,0,0,1,0-10,6.68,6.68,0,0,1,6.89-6A6.82,6.82,0,0,1,112,52,49,49,0,0,1,112.06,57Z"/></g></g></svg>