<svg id="Camada_1" data-name="Camada 1" xmlns="http://www.w3.org/2000/svg" viewBox="0 0 150 150"><defs><style>.cls-1{fill:none;stroke:#14ce4f;stroke-miterlimit:10;stroke-width:2px;}</style></defs><title>ÍCONES BIONOTE</title><path class="cls-1" d="M74.86,59.71A15.45,15.45,0,1,0,90.31,75.15,15.46,15.46,0,0,0,74.86,59.71Zm0,24.37a8.92,8.92,0,1,1,8.93-8.93A8.94,8.94,0,0,1,74.86,84.08Z"/><path class="cls-1" d="M94.47,59.25A3.66,3.66,0,1,1,90.8,55.6,3.66,3.66,0,0,1,94.47,59.25Z"/><path class="cls-1" d="M89.87,45H60.13A15.12,15.12,0,0,0,45,60.13V89.86A15.12,15.12,0,0,0,60.13,105H89.87A15.12,15.12,0,0,0,105,89.86V60.13A15.12,15.12,0,0,0,89.87,45Zm8.46,44.72a8.6,8.6,0,0,1-8.6,8.6H60.27a8.59,8.59,0,0,1-8.6-8.6V60.28a8.6,8.6,0,0,1,8.6-8.62H89.73a8.6,8.6,0,0,1,8.6,8.62Z"/></svg>