<svg id="Camada_1" data-name="Camada 1" xmlns="http://www.w3.org/2000/svg" viewBox="0 0 152.5 152.5"><defs><style>.cls-1{fill:#211f21;stroke:#211f21;stroke-miterlimit:10;stroke-width:1.5px;}</style></defs><title>ÍCONES BIONOTE</title><path class="cls-1" d="M80.3,89.48l1.42-1.41a13,13,0,0,0,0-18.39L46.63,34.5a13,13,0,0,0-18.39,0l-1.42,1.41a13,13,0,0,0,0,18.38L56.41,83.94l1.41-1.41L28.22,52.86a11,11,0,0,1,0-15.56l1.41-1.41a11,11,0,0,1,15.56,0L80.32,71.1a11,11,0,0,1,0,15.55l-1.42,1.41Z"/><path class="cls-1" d="M113.08,135.82a13,13,0,0,0,9.18-3.8l1.42-1.41a13,13,0,0,0,0-18.38L94.09,82.56,92.68,84l29.6,29.67a11,11,0,0,1,0,15.56l-1.41,1.41a11,11,0,0,1-15.56,0L70.18,95.4a11,11,0,0,1,0-15.55l1.42-1.41L70.2,77l-1.42,1.41a13,13,0,0,0,0,18.39L103.87,132A13,13,0,0,0,113.08,135.82Z"/></svg>