<svg id="Camada_1" data-name="Camada 1" xmlns="http://www.w3.org/2000/svg" viewBox="0 0 150 150"><defs><style>.cls-1{fill:none;stroke:#14ce4f;stroke-miterlimit:10;stroke-width:2px;}</style></defs><title>ÍCONES BIONOTE</title><path class="cls-1" d="M106.36,82.17V105h-14V83.58c0-5.38-1.92-9.06-6.74-9.06a7.28,7.28,0,0,0-6.83,4.87,9.17,9.17,0,0,0-.44,3.25V105H65s.18-36.29,0-40H78.33v5.87s-.07.09-.09.13h.09v-.13c1.81-2.7,5-6.57,12.31-6.57,9,0,15.72,5.69,15.72,17.91ZM51.24,45c-4.59,0-7.6,3-7.6,7s2.92,7,7.42,7h.09c4.68,0,7.59-3.1,7.59-7s-2.91-7-7.5-7Zm-7,60h13V65h-13Z"/></svg>