<svg height="51.64" xmlns="http://www.w3.org/2000/svg">
 <defs>
  <style>.cls-1{fill:#c900dd;}.cls-2{fill:#455761;}</style>
 </defs>
 <title>SVG LOGO LOG</title>
 <g>
  <title>background</title>
  <rect fill="none" id="canvas_background" y="-1" x="-1"/>
 </g>
 <g>
  <title>Layer 1</title>
  <g id="Layer_2">
   <g id="Layer_1-2">
    <path id="svg_1" d="m50.57,37.78a12,12 0 1 1 12,-12a12,12 0 0 1 -12,12m0,13.85a25.75,25.75 0 0 0 18.93,-8.27a26.18,26.18 0 0 0 18.92,8.25a25.81,25.81 0 0 0 25.82,-25.8a27.55,27.55 0 0 0 -1.94,-10.08a3.16,3.16 0 0 0 -3.58,-2.16a56.34,56.34 0 0 0 -7.78,2.08c-6.82,2.21 -11.66,7.16 -13.75,9.24c-1,0.95 -0.33,2.53 1.07,1.63c1.57,-1 5.21,-4.28 9,-4.28a3.25,3.25 0 0 1 3.15,3.22c0,4.19 -2.07,11.08 -11.48,12.17c-3.61,0.37 -11.14,1.37 -15.23,2.65a0.85,0.85 0 0 1 -1,-1.19c2.75,-5 3.22,-9.16 3.75,-13.29c0.88,-6.92 5.66,-12 12,-12a11.38,11.38 0 0 1 4.75,1a2.42,2.42 0 0 0 2.46,-0.34s0,0 7.91,-7.9a1.22,1.22 0 0 0 -0.1,-1.79a24,24 0 0 0 -3.05,-1.89a25.8,25.8 0 0 0 -30.86,5.3l0,0a25.81,25.81 0 0 0 -40.91,31.27l-11.55,0a3.2,3.2 0 0 1 -3.22,-3.22l0,-32a3.23,3.23 0 0 0 -3.22,-3.29l-7.42,0a3.24,3.24 0 0 0 -3.24,3.25l0,42.7a4.7,4.7 0 0 0 4.75,4.74l45.82,0z" class="cls-1"/>
   </g>
  </g>
 </g>
</svg>