<svg xmlns="http://www.w3.org/2000/svg" viewBox="0 0 96.88 96.88"><defs><style>.cls-1{fill:#211f21;}.cls-2{fill:#fff;}</style></defs><title>Ativo 1</title><g id="Camada_2" data-name="Camada 2"><g id="Camada_1-2" data-name="Camada 1"><path class="cls-1" d="M1.67,83.51H66.91a15,15,0,1,0,16.6-16.6V38.42h0a2,2,0,0,0,0-.42,1.65,1.65,0,0,0-.83-1v0L71.82,31.09V7.48A7.27,7.27,0,0,0,64.65,0H20a8.36,8.36,0,0,0-8.35,8.35V31.09L.87,37v0a1.65,1.65,0,0,0-.83,1,1.49,1.49,0,0,0,0,.42H0V81.84s0,.1,0,.15a2.28,2.28,0,0,0,0,.26.84.84,0,0,0,.06.14,2,2,0,0,0,.1.21,1.27,1.27,0,0,0,.2.31l.15.17a2.46,2.46,0,0,0,.34.22l.17.09a1.53,1.53,0,0,0,.6.12Z"/><polygon class="cls-1" points="71.82 40.09 75.25 40.09 71.82 41.95 71.82 40.09"/><path class="cls-1" d="M69.51,73.27,45.26,60.13,80.17,41.22V66.91a15,15,0,0,0-10.66,6.36Z"/><polygon class="cls-1" points="11.69 41.95 8.26 40.09 11.69 40.09 11.69 41.95"/><polygon class="cls-1" points="3.34 41.22 38.25 60.13 3.34 79.04 3.34 41.22"/><path class="cls-1" d="M41.76,62,67.92,76.2a14.76,14.76,0,0,0-1,4H8.26Z"/><path class="cls-2" d="M93.53,81.84A11.69,11.69,0,1,1,81.84,70.15,11.69,11.69,0,0,1,93.53,81.84Z"/><polygon class="cls-1" points="75.25 36.75 71.82 36.75 71.82 34.89 75.25 36.75"/><path class="cls-2" d="M15,8.35a5,5,0,0,1,5-5h44.4c2.3,0,4,2.33,4,5.25V43.76L41.76,58.23,15,43.76Z"/><polygon class="cls-1" points="11.69 36.75 8.26 36.75 11.69 34.89 11.69 36.75"/><path class="cls-1" d="M75.16,80.17a8.72,8.72,0,0,1-.44,2.73l-1.14,3.43a1.66,1.66,0,0,0,1.58,2.19h5a1.67,1.67,0,0,0,3.34,0h5a1.7,1.7,0,0,0,1.36-.69,1.68,1.68,0,0,0,.23-1.5L89,82.9a8.45,8.45,0,0,1-.45-2.73,6.68,6.68,0,1,0-13.36,0Zm10,0A11.9,11.9,0,0,0,85.8,84l.4,1.22H77.48L77.89,84a12.17,12.17,0,0,0,.61-3.79,3.34,3.34,0,1,1,6.68,0Z"/><rect class="cls-1" x="21.26" y="25.32" width="40.14" height="3.09" rx="1.54" ry="1.54"/><rect class="cls-1" x="21.26" y="14.82" width="40.14" height="3.09" rx="1.54" ry="1.54"/><rect class="cls-1" x="21.26" y="35.2" width="40.14" height="3.09" rx="1.54" ry="1.54"/></g></g></svg>