<?xml version="1.0" encoding="utf-8"?>
<!-- Generator: Adobe Illustrator 22.1.0, SVG Export Plug-In . SVG Version: 6.00 Build 0)  -->
<svg version="1.1" id="Camada_1" xmlns="http://www.w3.org/2000/svg" xmlns:xlink="http://www.w3.org/1999/xlink" x="0px" y="0px"
	 viewBox="0 0 150 150" style="enable-background:new 0 0 150 150;" xml:space="preserve">
<style type="text/css">
	.st0{fill:#14CE4F;}
	.st1{opacity:0.9;}
	.st2{filter:url(#Adobe_OpacityMaskFilter);}
	.st3{mask:url(#SVGID_1_);}
	.st4{fill:url(#SVGID_2_);}
	.st5{fill:#211F21;}
	.st6{fill:none;stroke:#14CE4F;stroke-width:2;stroke-miterlimit:10;}
	.st7{fill:none;stroke:#14CE4F;stroke-miterlimit:10;}
	.st8{fill:none;stroke:#14CE4F;stroke-width:3;stroke-miterlimit:10;}
	.st9{fill:#FFFFFF;}
	.st10{fill:#4F4F4F;}
	.st11{fill:#211F21;stroke:#211F21;stroke-width:1.5;stroke-miterlimit:10;}
</style>
<g>
	<path class="st5" d="M106.7,43.4c-0.2-0.3-0.6-0.4-0.9-0.4L75,47.3L44.2,43c-0.6-0.1-1.1,0.3-1.2,0.9c0,0.1,0,0.3,0,0.4l7.4,27.5
		l-6.3,28.5c-0.1,0.6,0.2,1.1,0.8,1.3c0,0,0,0,0,0l29.9,5.3c0.1,0,0.1,0,0.2,0c0.1,0,0.1,0,0.2,0l30.9-5.3c0.6-0.1,1-0.7,0.9-1.2
		c0,0,0,0,0,0L100.6,67l6.4-22.6C107.1,44,107,43.6,106.7,43.4z M52.6,72c0-0.2,0-0.3,0-0.5l-7-26.2l28.4,3.9v55.4l-27.5-4.9
		L52.6,72z M98.5,66.6c0,0.2-0.1,0.3,0,0.5l6.2,32.6l-28.6,4.9V49.3l28.4-3.9L98.5,66.6z"/>
	<path class="st5" d="M69.7,60.1c0.6,0,1.1-0.5,1.1-1.1v-5.3c0-0.5-0.4-1-0.9-1l-18.1-3.2c-0.3-0.1-0.6,0-0.9,0.2
		c-0.2,0.2-0.4,0.5-0.4,0.8v5.3c0,0.5,0.4,1,0.9,1l18.1,3.2C69.5,60.1,69.6,60.1,69.7,60.1z M68.6,57.7l-16-2.8v-3.2l16,2.8V57.7z"
		/>
	<path class="st5" d="M79.5,82.4l16-3.2c0.5-0.1,0.9-0.5,0.9-1v-5.3c0-0.6-0.5-1.1-1.1-1.1c-0.1,0-0.1,0-0.2,0l-16,3.2
		c-0.5,0.1-0.9,0.5-0.9,1v5.3c0,0.6,0.5,1.1,1.1,1.1C79.3,82.5,79.4,82.5,79.5,82.4z M80.3,76.9l13.9-2.8v3.2l-13.9,2.8V76.9z"/>
	<path class="st5" d="M70.9,75l-7.5-1.3c-0.3-0.1-0.6,0-0.9,0.2c-0.2,0.2-0.4,0.5-0.4,0.8v5.3c0,0.5,0.4,1,0.9,1l7.5,1.3
		c0.1,0,0.1,0,0.2,0c0.6,0,1.1-0.5,1.1-1.1v-5.3C71.8,75.5,71.4,75.1,70.9,75z M69.7,80.1l-5.3-0.9V76l5.3,0.9V80.1z"/>
	<path class="st5" d="M89.9,59c0.1,0,0.1,0,0.2,0l7.5-1.3c0.5-0.1,0.9-0.5,0.9-1v-5.3c0-0.6-0.5-1.1-1.1-1.1c-0.1,0-0.1,0-0.2,0
		l-7.5,1.3c-0.5,0.1-0.9,0.5-0.9,1v5.3C88.9,58.5,89.3,59,89.9,59z M91,53.5l5.3-0.9v3.2L91,56.7V53.5z"/>
	
		<rect x="60.6" y="53.5" transform="matrix(0.1738 -0.9848 0.9848 0.1738 -10.8294 112.5597)" class="st5" width="2.1" height="18.4"/>
	
		<rect x="66.5" y="65.6" transform="matrix(0.1738 -0.9848 0.9848 0.1738 -13.124 124.3202)" class="st5" width="2.1" height="8.7"/>
	<rect x="56.7" y="65" transform="matrix(0.1738 -0.9848 0.9848 0.1738 -19.3116 113.1158)" class="st5" width="2.1" height="6.1"/>
	
		<rect x="65.4" y="94.4" transform="matrix(0.1738 -0.9848 0.9848 0.1738 -42.3644 147.0619)" class="st5" width="2.1" height="8.7"/>
	
		<rect x="55.6" y="93.8" transform="matrix(0.1738 -0.9848 0.9848 0.1738 -48.5549 135.8617)" class="st5" width="2.1" height="6.1"/>
	
		<rect x="60.6" y="82.3" transform="matrix(0.1738 -0.9848 0.9848 0.1738 -39.1933 136.3565)" class="st5" width="2.1" height="18.4"/>
	
		<rect x="56.3" y="73.9" transform="matrix(0.1963 -0.9805 0.9805 0.1963 -28.9757 117.8438)" class="st5" width="2.1" height="5.4"/>
	
		<rect x="61.1" y="76.5" transform="matrix(0.1843 -0.9829 0.9829 0.1843 -32.94 130.5789)" class="st5" width="2.1" height="17.4"/>
	<rect x="79.1" y="61.7" transform="matrix(0.9848 -0.1739 0.1739 0.9848 -9.5632 16.317)" class="st5" width="18.4" height="2.1"/>
	<rect x="78.1" y="68.9" transform="matrix(0.9848 -0.1739 0.1739 0.9848 -10.913 15.4072)" class="st5" width="8.7" height="2.1"/>
	<rect x="89.2" y="67" transform="matrix(0.9848 -0.1738 0.1738 0.9848 -10.4249 17.066)" class="st5" width="6.1" height="2.1"/>
	
		<rect x="79.2" y="97.7" transform="matrix(0.9848 -0.1739 0.1739 0.9848 -15.9043 16.0313)" class="st5" width="8.7" height="2.1"/>
	
		<rect x="90.2" y="95.8" transform="matrix(0.9848 -0.1739 0.1739 0.9848 -15.4233 17.7029)" class="st5" width="6.1" height="2.1"/>
	
		<rect x="79.1" y="90.5" transform="matrix(0.9848 -0.1739 0.1739 0.9848 -14.5716 16.7559)" class="st5" width="18.4" height="2.1"/>
	<rect x="81.3" y="55.3" transform="matrix(0.9805 -0.1963 0.1963 0.9805 -9.4227 17.5983)" class="st5" width="5.4" height="2.1"/>
	
		<rect x="79.1" y="84.1" transform="matrix(0.9828 -0.1846 0.1846 0.9828 -14.2094 17.6751)" class="st5" width="17.4" height="2.1"/>
</g>
</svg>
