<svg xmlns="http://www.w3.org/2000/svg" viewBox="0 0 87.5 77.21"><defs><style>.cls-1{fill:none;stroke:#c900de;stroke-miterlimit:10;stroke-width:2.5px;}</style></defs><title>phone-icon</title><g id="Camada_2" data-name="Camada 2"><g id="Camada_1-2" data-name="Camada 1"><path class="cls-1" d="M43.75,1.25A42.52,42.52,0,0,0,1.25,43.58V63.51A7.48,7.48,0,0,0,8.72,71h2.49V46.07H8.72a7.34,7.34,0,0,0-2.49.46v-3a37.52,37.52,0,0,1,75,0v3a7.34,7.34,0,0,0-2.49-.46H76.29V71h2.49a7.48,7.48,0,0,0,7.47-7.47V43.58A42.52,42.52,0,0,0,43.75,1.25Z"/><path class="cls-1" d="M23.66,76a2.49,2.49,0,0,0,2.49-2.49V43.58a2.49,2.49,0,0,0-2.49-2.49H21.17a5,5,0,0,0-5,5V71a5,5,0,0,0,5,5Z"/><path class="cls-1" d="M66.33,76a5,5,0,0,0,5-5V46.07a5,5,0,0,0-5-5H63.84a2.49,2.49,0,0,0-2.49,2.49V73.47A2.49,2.49,0,0,0,63.84,76Z"/></g></g></svg>