<svg xmlns="http://www.w3.org/2000/svg" viewBox="0 0 139.7 137.11"><defs><style>.cls-1{fill:#c900dd;}</style></defs><title>podcast</title><g id="Layer_2" data-name="Layer 2"><g id="Camada_2" data-name="Camada 2"><path class="cls-1" d="M106.71,20.4a43.49,43.49,0,0,0-73.73,0A43.5,43.5,0,0,0,10.12,90.54a43.48,43.48,0,0,0,43.51,46.55,43.1,43.1,0,0,0,16.19-3.17,43.42,43.42,0,0,0,16.34,3.19,43.44,43.44,0,0,0,43.36-46.54A43.5,43.5,0,0,0,106.71,20.4Zm-18.41,85a36.33,36.33,0,0,1-18.48,21.11,36.91,36.91,0,0,1-18.46-21.11l.18,0q1.09-.2,2.16-.46l.4-.1c.72-.18,1.44-.38,2.14-.59l.08,0c.72-.22,1.44-.47,2.15-.73l.41-.15q1-.39,2-.83l.38-.17c.68-.31,1.36-.63,2-1l0,0c.67-.35,1.34-.72,2-1.1l.37-.22q.95-.57,1.87-1.18l.35-.24c.63-.43,1.26-.88,1.87-1.35a43.5,43.5,0,0,0,17.63,8Zm14-79a36.89,36.89,0,0,1,2.56,27.93l-.16-.07q-1-.48-2.06-.91l-.32-.13a43,43,0,0,0-4.4-1.51l-.37-.1q-1.07-.29-2.16-.53L95,51c-.73-.15-1.47-.29-2.21-.41h-.06c-.74-.11-1.49-.2-2.24-.27l-.47,0q-1.08-.1-2.17-.14h-.46c-.76,0-1.52,0-2.29,0a43.65,43.65,0,0,0-9.55-16.84L75,32.64A36.36,36.36,0,0,1,102.33,26.41ZM88.68,75l-2.55,1.52,1.16,2.73c.18.42.35.84.51,1.27l.16.42c.11.29.21.57.31.86l.17.5c.09.27.17.53.25.8l.15.53q.11.4.22.79l.13.52c.07.28.13.55.19.83l.11.49c.07.32.13.65.18,1,0,.12,0,.23.06.35q.11.66.2,1.32c0,.11,0,.22,0,.33,0,.34.08.67.11,1,0,.16,0,.32,0,.49s0,.57.06.86,0,.35,0,.53,0,.55,0,.83,0,.36,0,.54,0,.56,0,.83,0,.35,0,.52,0,.6,0,.9,0,.3,0,.45q0,.63-.11,1.26v.09c0,.41-.1.82-.16,1.23-.35-.06-.71-.11-1.06-.19a36.63,36.63,0,0,1-16.75-8.3l-2.23-2-2.24,2q-.52.45-1,.88l-.35.27-.73.57-.42.31-.68.49-.45.31-.69.45-.46.29-.73.44-.43.25-.86.47-.32.17-1.2.6-.31.14-.92.41-.46.19-.79.32-.5.19-.77.28-.51.17-.8.25-.5.15-.89.24-.42.11-1.31.3h0l-1.24.23c-.05-.35-.11-.71-.15-1.06a36.81,36.81,0,0,1,2.7-18.48l1.16-2.73L51,75c-.66-.4-1.3-.82-1.94-1.25l-.3-.2q-.89-.63-1.74-1.3L46.67,72q-.85-.69-1.65-1.41l-.23-.22c-.53-.5-1.05-1-1.55-1.53l-.09-.09c-.51-.54-1-1.1-1.47-1.66l-.25-.29q-.68-.83-1.31-1.7l-.24-.33c-.42-.6-.83-1.2-1.21-1.82l-.13-.22q-.56-.93-1.08-1.89l-.06-.12c.32-.16.64-.33,1-.47A36.75,36.75,0,0,1,56.81,57l3,.27.66-2.9c.1-.45.21-.89.33-1.33l.12-.43c.08-.3.17-.59.26-.89l.16-.5c.09-.27.17-.53.27-.8l.18-.51.29-.77.2-.5c.11-.26.22-.53.33-.79l.2-.46c.14-.3.28-.6.42-.9l.15-.32q.3-.6.62-1.19l.16-.28c.17-.3.33-.59.51-.89l.26-.42.45-.73.29-.44.46-.68.31-.44.5-.67.31-.41.57-.71.28-.34q.42-.49.85-1l0,0c.28-.31.57-.61.86-.91.25.26.5.51.74.77q.8.88,1.54,1.81a36.76,36.76,0,0,1,7.14,14.76l.66,2.89,3-.27,1.37-.1.46,0,.91,0H87l.55,0,.83,0,.53,0,.86.07.48,0,1,.13.32,0,1.34.22.22,0,1.1.23.42.1.89.22.47.13.84.24.48.15.83.28.46.16.87.33.4.16L101,60l.16.07,1.13.54c-.17.33-.33.65-.52,1A36.62,36.62,0,0,1,88.68,75ZM64.53,32.77q-.76.8-1.47,1.64l-.27.32c-.48.57-.94,1.15-1.38,1.74l-.05.07c-.45.61-.89,1.23-1.31,1.85l-.24.36q-.6.92-1.16,1.87l-.21.36c-.37.65-.73,1.31-1.07,2l0,0c-.34.68-.66,1.37-1,2.07l-.17.39q-.43,1-.82,2.06l-.14.4c-.26.72-.5,1.45-.72,2.2a43.39,43.39,0,0,0-19,3.88l-.78.36a36.35,36.35,0,0,1,2.56-28,36.93,36.93,0,0,1,27.32,6.22Zm-33,31.41.09.16q.53,1,1.11,1.92l.22.35c.4.63.8,1.26,1.23,1.87l0,.06c.44.62.89,1.22,1.36,1.82l.27.34q.69.86,1.42,1.68l.28.31c.5.55,1,1.1,1.55,1.63l0,0c.54.53,1.1,1,1.66,1.55l.33.29q.83.72,1.7,1.41l.34.26c.61.47,1.23.93,1.86,1.37a43.69,43.69,0,0,0-2.16,19.22q0,.42.11.85A36.36,36.36,0,0,1,17.21,88.26,36.92,36.92,0,0,1,31.58,64.19ZM96.65,99.31c0-.06,0-.12,0-.18q.14-1.1.23-2.2c0-.13,0-.27,0-.4.05-.75.09-1.5.1-2.25v-.05c0-.76,0-1.52,0-2.28,0-.14,0-.28,0-.42q-.05-1.1-.16-2.19c0-.14,0-.27,0-.41-.08-.75-.18-1.5-.3-2.24v0c-.12-.75-.27-1.5-.43-2.24L96,84q-.25-1.08-.55-2.14l-.12-.41c-.22-.74-.45-1.47-.7-2.2A43.49,43.49,0,0,0,107.64,65l.44-.78a36.4,36.4,0,0,1,14.37,24.08A36.89,36.89,0,0,1,96.65,99.31ZM88,11.54a36.76,36.76,0,0,1,9.33,7.56,43.09,43.09,0,0,0-27.37,8.85l-.09-.07-.09.08a43.74,43.74,0,0,0-27.39-8.82A36.85,36.85,0,0,1,88,11.54ZM18.7,35.49h0a36.73,36.73,0,0,1,10.12-6.56,43,43,0,0,0-.06,28.82l-.09.06,0,.1A43.72,43.72,0,0,0,11.83,81.25,36.84,36.84,0,0,1,18.7,35.49Zm1.39,73.29A36.9,36.9,0,0,1,17,97.12a43,43,0,0,0,26.38,9l1,0,0,.11h.12a43.71,43.71,0,0,0,17,23.26A36.84,36.84,0,0,1,20.09,108.77Zm70.15,21.32a37,37,0,0,1-12-.65,43,43,0,0,0,17-23.26h.11l0-.12.9,0a43.72,43.72,0,0,0,26.49-9A36.83,36.83,0,0,1,90.24,130.09ZM132.16,70a36.66,36.66,0,0,1-4.31,11.22,43.09,43.09,0,0,0-16.91-23.33l0-.1-.08,0a43.68,43.68,0,0,0-.1-28.81A36.82,36.82,0,0,1,132.16,70Z"/></g></g></svg>