<svg xmlns="http://www.w3.org/2000/svg" viewBox="0 0 60 60"><defs><style>.cls-1{fill:#211f21;}</style></defs><title>Ativo 3</title><g id="Camada_2" data-name="Camada 2"><g id="Camada_1-2" data-name="Camada 1"><path class="cls-1" d="M8.18,43.64A7.92,7.92,0,0,0,2.38,46a8.25,8.25,0,0,0,0,11.59A7.93,7.93,0,0,0,8.18,60,7.89,7.89,0,0,0,14,57.61,8.25,8.25,0,0,0,14,46a7.89,7.89,0,0,0-5.8-2.38Z"/><path class="cls-1" d="M27,33a37.67,37.67,0,0,0-11-7.73,38.16,38.16,0,0,0-13-3.43H2.73a2.52,2.52,0,0,0-1.84.72,2.53,2.53,0,0,0-.89,2V30.3a2.6,2.6,0,0,0,.7,1.83A2.58,2.58,0,0,0,2.47,33a26.53,26.53,0,0,1,16.68,7.86A26.54,26.54,0,0,1,27,57.53a2.58,2.58,0,0,0,.85,1.77,2.65,2.65,0,0,0,1.83.7h5.75a2.77,2.77,0,0,0,2.73-2.94,38.16,38.16,0,0,0-3.43-13A37.86,37.86,0,0,0,27,33Z"/><path class="cls-1" d="M54.88,35.77A59.7,59.7,0,0,0,42.36,17.64,59.9,59.9,0,0,0,24.23,5.11,59.18,59.18,0,0,0,2.86,0H2.73A2.57,2.57,0,0,0,.85.77a2.5,2.5,0,0,0-.85,2V8.82a2.62,2.62,0,0,0,.75,1.86,2.56,2.56,0,0,0,1.81.83A48.15,48.15,0,0,1,20,15.85a49,49,0,0,1,14.32,9.87A49.07,49.07,0,0,1,44.15,40a47.8,47.8,0,0,1,4.3,17.41,2.52,2.52,0,0,0,.83,1.81,2.67,2.67,0,0,0,1.9.75h6.09A2.77,2.77,0,0,0,60,57.14a59.19,59.19,0,0,0-5.12-21.37Z"/></g></g></svg>