<svg xmlns="http://www.w3.org/2000/svg" viewBox="0 0 65.42 127"><defs><style>.cls-1{fill:#211f21;}.cls-2{fill:#c900dd;}</style></defs><title>running-icon</title><g id="Camada_2" data-name="Camada 2"><g id="Camada_1-2" data-name="Camada 1"><circle class="cls-1" cx="48.05" cy="12.4" r="12.4"/><circle class="cls-2" cx="45.09" cy="12.99" r="3.54"/><path class="cls-2" d="M44.11,15.83a19.87,19.87,0,0,0,3.52,14.7c1.71,2.33,4.57,4.19,5.87,6.77,3,5.82-.81,9.57-5.56,12.39A.75.75,0,0,0,48.7,51c4.36-2.6,9-6.4,7.22-12.06-1-3.11-3.48-5.1-5.56-7.45a19,19,0,0,1-4.75-15.65c.13-.95-1.37-.94-1.5,0Z"/><path class="cls-1" d="M42.73,75.25C42.14,65,45.09,44,45.09,44s4.73-10.81,0-15.62c-3-3.06-8.26-3.6-14.17-2.4C13,29.65,5.63,51.76,7.31,54.82c3,5.41,6.42,3.22,7.08,1.21C17.93,45.21,25,41.61,25,41.61s-3.44,20.53-1.73,27.58c.6,2.49.74,11.31.74,11.31"/><path class="cls-1" d="M24,72.14c.39,3.55-4.32,20.56-12.59,22.92s-5.9,0-9.45,3.54-2.36,10.63,3.55,10.63,17.71-3.54,21.25-7.08S37.42,86.79,37.42,86.79s4.72,10.63,5.9,16.54,2.81,15.23,3.55,18.89c1.18,5.9,9.44,5.9,10.62,2.36,1.54-4.62,0-22.43-2.36-29.52S43.3,67,43.3,67Z"/><rect class="cls-2" x="36.24" y="62" width="10.63" height="12.99" rx="4" ry="4"/><path class="cls-2" d="M46.11,51.49A6.43,6.43,0,0,0,44,57.23c.46,2.88,6.55,7.73,1.91,9.58-.89.35-.5,1.8.4,1.45,1.85-.74,3.7-1.83,3.29-4.14-.75-4.31-7.4-6.79-2.43-11.57.7-.67-.36-1.73-1.06-1.06Z"/><path class="cls-1" d="M33.29,31.88c.41-3.51,7.08-2.36,8.26,0s1.38,15,5.91,17.72c5.9,3.54,13,0,16.53,2.36,1.39.92,2.36,4.72,0,7.08s-15.35,1.18-17.71,0C41,56.4,30.92,52,33.29,31.88Z"/></g></g></svg>