<svg xmlns="http://www.w3.org/2000/svg" viewBox="0 0 86.5 86.5"><defs><style>.cls-1{fill:none;stroke:#c900de;stroke-miterlimit:10;stroke-width:2.5px;}</style></defs><title>spotify-icon</title><g id="Camada_2" data-name="Camada 2"><g id="Camada_1-2" data-name="Camada 1"><path class="cls-1" d="M43.23,1.25a42,42,0,1,0,42,42,42,42,0,0,0-42-42ZM21.93,58.67a50.66,50.66,0,0,1,14.83-2.24,49.88,49.88,0,0,1,24.12,6.2,3,3,0,0,1,1,2,4.41,4.41,0,0,1-.18,2.51,2.14,2.14,0,0,1-1.87,1.1A2,2,0,0,1,58.8,68a45.92,45.92,0,0,0-22-5.65,45.24,45.24,0,0,0-13.54,2,2.37,2.37,0,0,1-.65.09A2.13,2.13,0,0,1,20.52,63c-.37-1.23.4-4,1.41-4.28ZM20.1,43.2a63.24,63.24,0,0,1,45.74,4.86,2.58,2.58,0,0,1,1.3,1.51,2.62,2.62,0,0,1-.19,2c-.79,1.55-1.72,2.6-2.31,2.6a2.71,2.71,0,0,1-1.22-.3,58,58,0,0,0-41.94-4.44,2.74,2.74,0,0,1-.7.09,2.63,2.63,0,0,1-2.52-1.93c-.39-1.48.51-4.06,1.84-4.42Zm-.47-10.11a3.29,3.29,0,0,1-.76.09,3.08,3.08,0,0,1-3-2.34,3.54,3.54,0,0,1,2.24-4.16,78.15,78.15,0,0,1,18.65-2.27,76.46,76.46,0,0,1,34.39,8.07,3.11,3.11,0,0,1,1.4,4.17,3.53,3.53,0,0,1-2.79,2.09,3.28,3.28,0,0,1-1.35-.3A70.08,70.08,0,0,0,36.76,31a71.77,71.77,0,0,0-17.13,2.09Z"/></g></g></svg>