<svg xmlns="http://www.w3.org/2000/svg" viewBox="0 0 264.31 51.64"><defs><style>.cls-1{fill:#57bf00;}.cls-2{fill:#455761;}</style></defs><title>SVG LOGO LOG</title><g id="Layer_2" data-name="Layer 2"><g id="Layer_1-2" data-name="Layer 1"><path class="cls-1" d="M50.57,37.78a12,12,0,1,1,12-12,12,12,0,0,1-12,12m0,13.85A25.75,25.75,0,0,0,69.5,43.36a26.18,26.18,0,0,0,18.92,8.25,25.81,25.81,0,0,0,25.82-25.8,27.55,27.55,0,0,0-1.94-10.08,3.16,3.16,0,0,0-3.58-2.16,56.34,56.34,0,0,0-7.78,2.08c-6.82,2.21-11.66,7.16-13.75,9.24-1,.95-.33,2.53,1.07,1.63,1.57-1,5.21-4.28,9-4.28a3.25,3.25,0,0,1,3.15,3.22c0,4.19-2.07,11.08-11.48,12.17C85.32,38,77.79,39,73.7,40.28a.85.85,0,0,1-1-1.19c2.75-5,3.22-9.16,3.75-13.29.88-6.92,5.66-12,12-12a11.38,11.38,0,0,1,4.75,1,2.42,2.42,0,0,0,2.46-.34s0,0,7.91-7.9a1.22,1.22,0,0,0-.1-1.79,24,24,0,0,0-3.05-1.89,25.8,25.8,0,0,0-30.86,5.3l0,0A25.81,25.81,0,0,0,28.65,39.45H17.1a3.2,3.2,0,0,1-3.22-3.22v-32A3.23,3.23,0,0,0,10.66.94H3.24A3.24,3.24,0,0,0,0,4.19v42.7a4.7,4.7,0,0,0,4.75,4.74Z"/><path class="cls-2" d="M144.11,35.91a3,3,0,0,0-2.29-1,3,3,0,0,0-2.27,1,3.52,3.52,0,0,0-.93,2.49,3,3,0,0,0,.94,2.33,2.92,2.92,0,0,0,2.25,1,3,3,0,0,0,2.29-1,3.37,3.37,0,0,0,1-2.4,3.58,3.58,0,0,0-.94-2.44m-5.89,12.56a1.29,1.29,0,0,1-.94.4,1.25,1.25,0,0,1-.93-.4,1.26,1.26,0,0,1-.38-.9v-14a1.23,1.23,0,0,1,.37-.9,1.22,1.22,0,0,1,.89-.37,1.4,1.4,0,0,1,.89.29,1.11,1.11,0,0,1,.45.7,5.89,5.89,0,0,1,3.27-1A5.51,5.51,0,0,1,146,34.08a5.94,5.94,0,0,1,1.71,4.26A5.82,5.82,0,0,1,146,42.57a5.55,5.55,0,0,1-4.12,1.74,5.39,5.39,0,0,1-3.23-1v4.24a1.24,1.24,0,0,1-.4.9"/><path class="cls-2" d="M153.16,38.33a3.55,3.55,0,0,0,.88,2.44,2.89,2.89,0,0,0,2.26,1,3,3,0,0,0,2.29-1,3.47,3.47,0,0,0,.9-2.43,3.52,3.52,0,0,0-.91-2.46,3,3,0,0,0-2.28-1,2.89,2.89,0,0,0-2.25,1,3.55,3.55,0,0,0-.89,2.46m-.93,4.25a6.31,6.31,0,0,1,0-8.51,5.36,5.36,0,0,1,4.08-1.77,5.45,5.45,0,0,1,3.21,1.06,1.47,1.47,0,0,1,.46-.76,1.19,1.19,0,0,1,.83-.3,1.17,1.17,0,0,1,.87.38,1.27,1.27,0,0,1,.37.92v9.46a1.23,1.23,0,0,1-.37.9,1.19,1.19,0,0,1-.87.37,1.23,1.23,0,0,1-.83-.29,1.41,1.41,0,0,1-.46-.75,5.46,5.46,0,0,1-3.21,1,5.38,5.38,0,0,1-4.08-1.76"/><path class="cls-2" d="M169.36,33.74a3.91,3.91,0,0,1,1.52-1,4.48,4.48,0,0,1,1.76-.38,1.67,1.67,0,0,1,1.17.37,1.18,1.18,0,0,1,.37.88,1.26,1.26,0,0,1-.37.91,1.21,1.21,0,0,1-.9.38q-2.24,0-3.54,3.64v4.57a1.21,1.21,0,0,1-.38.9,1.29,1.29,0,0,1-.93.37,1.24,1.24,0,0,1-.91-.37,1.22,1.22,0,0,1-.37-.9V33.58a1.19,1.19,0,0,1,.37-.89,1.26,1.26,0,0,1,.91-.36,1.31,1.31,0,0,1,.93.36,1.18,1.18,0,0,1,.38.89Z"/><path class="cls-2" d="M181.41,32.3a1.32,1.32,0,0,1,1,.38,1.25,1.25,0,0,1,.4.93,1.35,1.35,0,0,1-1.35,1.34h-.6v6.72a1.26,1.26,0,0,1,.94.4,1.32,1.32,0,0,1,.39,1,1.32,1.32,0,0,1-1.33,1.33,2.67,2.67,0,0,1-2.67-2.67V34.95h-.7a1.32,1.32,0,1,1,0-2.65h.7V28.81a1.26,1.26,0,0,1,.4-.94,1.32,1.32,0,0,1,1-.39,1.32,1.32,0,0,1,1.33,1.33V32.3Z"/><path class="cls-2" d="M197.13,35.84a3.7,3.7,0,0,0-.87,2.5,3.9,3.9,0,0,0,.87,2.55,3.32,3.32,0,0,0,4.53,0,3.73,3.73,0,0,0,.94-2.55,3.54,3.54,0,0,0-.94-2.5,3.26,3.26,0,0,0-4.53,0m2.31,8.57a5.45,5.45,0,0,1-4.12-1.78,6.23,6.23,0,0,1,0-8.54,5.42,5.42,0,0,1,4.08-1.8,5.32,5.32,0,0,1,4.06,1.82,6.17,6.17,0,0,1,1.67,4.33,5.53,5.53,0,0,1-1.69,4.14,5.09,5.09,0,0,1-4,1.83"/><path class="cls-2" d="M215.5,28.79a1.34,1.34,0,0,1-1.36,1.34,1.16,1.16,0,0,0-.73.14c-.06,0-.12.14-.16.41a5.61,5.61,0,0,0-.06.82v.34h.72a1.27,1.27,0,0,1,.94.39,1.25,1.25,0,0,1,.39.93,1.29,1.29,0,0,1-.39.94,1.25,1.25,0,0,1-.94.4h-.72V43a1.32,1.32,0,0,1-1.33,1.33A1.32,1.32,0,0,1,210.54,43v-8.5h-.63a1.31,1.31,0,0,1-1-.38,1.31,1.31,0,0,1,0-1.88,1.31,1.31,0,0,1,1-.39h.63V31.5q0-4,3.64-4a1.27,1.27,0,0,1,.93.4,1.28,1.28,0,0,1,.4.94"/><path class="cls-2" d="M232.07,32.66a1.21,1.21,0,0,1,.89-.36,1.28,1.28,0,0,1,.92.37,1.21,1.21,0,0,1,.38.9v9.1a5.72,5.72,0,0,1-5.75,5.76,5.47,5.47,0,0,1-2.48-.6,1.15,1.15,0,0,1-.67-.71,1.35,1.35,0,0,1,0-1,1.28,1.28,0,0,1,.76-.6,1.41,1.41,0,0,1,1.1.12,3.15,3.15,0,0,0,1.45.28,2.94,2.94,0,0,0,1.7-.63,3,3,0,0,0,1.12-1.55,4.53,4.53,0,0,1-2.29.58,4.83,4.83,0,0,1-3.55-1.49,4.9,4.9,0,0,1-1.48-3.57V33.57a1.27,1.27,0,1,1,2.53,0v5.68a2.33,2.33,0,0,0,.73,1.75,2.45,2.45,0,0,0,1.77.71A2.42,2.42,0,0,0,231,41a2.36,2.36,0,0,0,.72-1.75V33.57a1.23,1.23,0,0,1,.36-.91"/><path class="cls-2" d="M242.28,35.84a3.7,3.7,0,0,0-.87,2.5,3.9,3.9,0,0,0,.87,2.55,3.32,3.32,0,0,0,4.53,0,3.73,3.73,0,0,0,.94-2.55,3.54,3.54,0,0,0-.94-2.5,3.26,3.26,0,0,0-4.53,0m2.31,8.57a5.45,5.45,0,0,1-4.12-1.78,6.23,6.23,0,0,1,0-8.54,5.42,5.42,0,0,1,4.08-1.8,5.32,5.32,0,0,1,4.06,1.82,6.18,6.18,0,0,1,1.67,4.33,5.53,5.53,0,0,1-1.69,4.14,5.09,5.09,0,0,1-4,1.83"/><path class="cls-2" d="M264.24,39.33a4.78,4.78,0,0,1-1.5,3.53,4.91,4.91,0,0,1-3.56,1.48,4.86,4.86,0,0,1-3.54-1.47,4.81,4.81,0,0,1-1.48-3.54V33.57a1.24,1.24,0,0,1,.37-.89,1.25,1.25,0,0,1,1.81,0,1.24,1.24,0,0,1,.37.89v5.76a2.43,2.43,0,0,0,2.46,2.46,2.44,2.44,0,0,0,1.77-.71,2.42,2.42,0,0,0,.76-1.74V33.57a1.25,1.25,0,0,1,.36-.89,1.16,1.16,0,0,1,.88-.38,1.27,1.27,0,0,1,.91.38,1.21,1.21,0,0,1,.4.89Z"/><path class="cls-2" d="M139.31,10.19V22.35a1.58,1.58,0,0,1-.47,1.13,1.51,1.51,0,0,1-1.13.48,1.53,1.53,0,0,1-1.13-.47,1.55,1.55,0,0,1-.47-1.14V5.29A1.35,1.35,0,0,1,136.69,4,1.7,1.7,0,0,1,138,3.67a1.51,1.51,0,0,1,1,.63l9.47,13.1V5.32A1.61,1.61,0,0,1,150,3.74a1.56,1.56,0,0,1,1.12.47,1.49,1.49,0,0,1,.49,1.11v17a1.51,1.51,0,0,1-.49,1.14A1.59,1.59,0,0,1,150,24a1.5,1.5,0,0,1-1.17-.59.84.84,0,0,1-.14-.18Z"/><path class="cls-2" d="M159.94,16.65a4.31,4.31,0,0,0,1.07,3,3.51,3.51,0,0,0,2.75,1.2,3.61,3.61,0,0,0,2.78-1.2,4.23,4.23,0,0,0,1.1-3,4.29,4.29,0,0,0-1.11-3,3.58,3.58,0,0,0-2.77-1.23A3.52,3.52,0,0,0,161,13.66a4.34,4.34,0,0,0-1.08,3m-1.13,5.17a7.28,7.28,0,0,1-2-5.17,7.34,7.34,0,0,1,2-5.19,6.52,6.52,0,0,1,5-2.16,6.6,6.6,0,0,1,3.9,1.29,1.83,1.83,0,0,1,.56-.92,1.46,1.46,0,0,1,1-.37,1.44,1.44,0,0,1,1.06.47,1.55,1.55,0,0,1,.45,1.11V22.41a1.5,1.5,0,0,1-.45,1.1,1.44,1.44,0,0,1-1.06.45,1.5,1.5,0,0,1-1-.35,1.74,1.74,0,0,1-.56-.91,6.61,6.61,0,0,1-3.9,1.26,6.53,6.53,0,0,1-5-2.14"/><path class="cls-2" d="M181.46,9.31a1.61,1.61,0,0,1,1.16.47,1.52,1.52,0,0,1,.48,1.13,1.65,1.65,0,0,1-1.64,1.63h-.73v8.18a1.54,1.54,0,0,1,1.14.48,1.6,1.6,0,0,1,.47,1.16A1.6,1.6,0,0,1,180.72,24a3.26,3.26,0,0,1-3.25-3.25V12.53h-.85a1.62,1.62,0,0,1-1.14-2.75,1.55,1.55,0,0,1,1.14-.47h.85V5.06A1.53,1.53,0,0,1,178,3.91a1.61,1.61,0,0,1,1.16-.47,1.61,1.61,0,0,1,1.61,1.61V9.31Z"/><path class="cls-2" d="M200.21,17.87a5.82,5.82,0,0,1-1.83,4.29A6,6,0,0,1,194,24a6.13,6.13,0,0,1-6.11-6.1v-7a1.51,1.51,0,0,1,.45-1.08,1.52,1.52,0,0,1,2.2,0,1.51,1.51,0,0,1,.45,1.08v7a3,3,0,0,0,3,3,3,3,0,0,0,2.15-.87,2.93,2.93,0,0,0,.92-2.12v-7a1.54,1.54,0,0,1,.44-1.08,1.42,1.42,0,0,1,1.07-.47,1.56,1.56,0,0,1,1.11.47,1.47,1.47,0,0,1,.48,1.08Z"/><path class="cls-2" d="M209.36,11.07a4.73,4.73,0,0,1,1.85-1.27,5.43,5.43,0,0,1,2.14-.47,2,2,0,0,1,1.42.45,1.43,1.43,0,0,1,.45,1.07,1.52,1.52,0,0,1-.45,1.1,1.47,1.47,0,0,1-1.1.47q-2.72,0-4.31,4.43v5.57a1.48,1.48,0,0,1-.47,1.1,1.56,1.56,0,0,1-1.13.45,1.56,1.56,0,0,1-1.57-1.55V10.86a1.45,1.45,0,0,1,.46-1.08,1.54,1.54,0,0,1,1.11-.44,1.6,1.6,0,0,1,1.13.44,1.44,1.44,0,0,1,.47,1.08Z"/><path class="cls-2" d="M225.19,12.09a4.16,4.16,0,0,0-2.73,1.06,3.84,3.84,0,0,0-1.23,2.05h8.29a4,4,0,0,0-1.42-2,5.08,5.08,0,0,0-2.91-1.11m7.06,4.16a1.35,1.35,0,0,1-.42,1,1.59,1.59,0,0,1-1.13.4h-9.32a3.52,3.52,0,0,0,1,1.93,4.13,4.13,0,0,0,2.74,1.3,4.3,4.3,0,0,0,3.12-.72,1.53,1.53,0,0,1,1.17-.47,1.22,1.22,0,0,1,1,.38,1.31,1.31,0,0,1,0,1.9,7.32,7.32,0,0,1-5.17,1.92,6.9,6.9,0,0,1-5.13-2.16,7.42,7.42,0,0,1,0-10.33,6.67,6.67,0,0,1,5-2.16,6.88,6.88,0,0,1,4.94,1.92,7.09,7.09,0,0,1,2.18,4.88Z"/><path class="cls-2" d="M246.19,9.79a1.63,1.63,0,0,1,2.26,0,1.57,1.57,0,0,1,.45,1.16V22.38a1.53,1.53,0,0,1-.45,1.13,1.51,1.51,0,0,1-1.11.45,1.6,1.6,0,0,1-1.6-1.58V10.95a1.57,1.57,0,0,1,.45-1.16M248.9,5v.61a1.58,1.58,0,0,1-.45,1.14,1.49,1.49,0,0,1-1.11.47,1.61,1.61,0,0,1-1.6-1.61V5a1.6,1.6,0,0,1,1.6-1.58,1.51,1.51,0,0,1,1.11.45A1.53,1.53,0,0,1,248.9,5"/><path class="cls-2" d="M263,10.92a1.51,1.51,0,0,1,.66,1,1.62,1.62,0,0,1-.19,1.19,1.52,1.52,0,0,1-1,.66,1.49,1.49,0,0,1-1.19-.25,5.33,5.33,0,0,0-2.71-1.08,2.74,2.74,0,0,0-1.74.53c-.31.21-.47.41-.47.57a.72.72,0,0,0,.07.37,1,1,0,0,0,.31.26,5.77,5.77,0,0,0,2.14.7l0,0h0a12.41,12.41,0,0,1,2.84.88,4.11,4.11,0,0,1,1.9,1.61,3.9,3.9,0,0,1,.62,2,4.07,4.07,0,0,1-1.85,3.4A6.54,6.54,0,0,1,258.66,24a8.37,8.37,0,0,1-5.21-2,1.48,1.48,0,0,1-.54-1,1.39,1.39,0,0,1,.34-1.13,1.38,1.38,0,0,1,1.06-.59,1.46,1.46,0,0,1,1.14.35,4.89,4.89,0,0,0,3.22,1.29,3.68,3.68,0,0,0,2-.56c.35-.29.53-.54.53-.75a.74.74,0,0,0-.09-.42,1,1,0,0,0-.38-.35,6.39,6.39,0,0,0-2.35-.82h0a10.9,10.9,0,0,1-2.71-.85,4.6,4.6,0,0,1-1.86-1.61,3.47,3.47,0,0,1-.5-1.85A3.94,3.94,0,0,1,255,10.39a6.27,6.27,0,0,1,3.62-1.08A7.87,7.87,0,0,1,263,10.92"/></g></g></svg>