<?xml version="1.0" encoding="utf-8"?>
<!-- Generator: Adobe Illustrator 22.0.1, SVG Export Plug-In . SVG Version: 6.00 Build 0)  -->
<svg version="1.1" id="Camada_1" xmlns="http://www.w3.org/2000/svg" xmlns:xlink="http://www.w3.org/1999/xlink" x="0px" y="0px"
	 viewBox="0 0 264.3 51.6" style="enable-background:new 0 0 264.3 51.6;" xml:space="preserve">
<style type="text/css">
	.st0{fill:#14CE4F;}
	.st1{fill:#455761;}
</style>
<title>SVG LOGO LOG</title>
<g id="Layer_2">
	<g id="Layer_1-2">
		<path class="st0" d="M50,37.9c-6.6,0-11.9-5.3-11.9-11.9S43.5,14.2,50,14.2s11.9,5.3,11.9,11.9S56.6,37.9,50,37.9 M50,51.6
			c7.1,0,13.9-3,18.7-8.2c4.9,5.2,11.6,8.1,18.7,8.2c14.1,0,25.5-11.4,25.5-25.5c0,0,0,0,0,0c0-3.4-0.7-6.8-1.9-10
			c-0.5-1.5-2-2.4-3.5-2.1c-2.6,0.5-5.2,1.2-7.7,2.1c-6.7,2.2-11.5,7.1-13.6,9.1c-1,0.9-0.3,2.5,1.1,1.6c1.6-1,5.2-4.2,8.9-4.2
			c1.7,0.1,3.1,1.5,3.1,3.2c0,4.1-2,11-11.4,12c-3.6,0.4-11,1.4-15.1,2.6c-0.4,0.1-0.9-0.1-1-0.6c-0.1-0.2,0-0.4,0.1-0.6
			c2.7-4.9,3.2-9.1,3.7-13.1c0.9-6.8,5.6-11.9,11.9-11.9c1.6,0,3.2,0.3,4.7,1c0.8,0.3,1.7,0.2,2.4-0.3c0,0,0,0,7.8-7.8
			c0.5-0.5,0.5-1.2,0-1.7c0,0,0,0-0.1-0.1c-1-0.7-2-1.3-3-1.9C89.2-1.9,76.7,0.2,68.8,8.6l0,0c-9.3-10.6-25.5-11.6-36-2.3
			c-9.5,8.4-11.4,22.6-4.4,33.2H16.9c-1.7,0-3.2-1.4-3.2-3.1c0,0,0,0,0,0V4.7c0-1.8-1.4-3.2-3.1-3.3c0,0,0,0-0.1,0H3.2
			C1.4,1.5,0,2.9,0,4.7c0,0,0,0,0,0v42.2c0,2.6,2,4.7,4.6,4.7c0,0,0.1,0,0.1,0H50z"/>
		<path class="st1" d="M142.6,36.1c-0.6-0.6-1.4-1-2.3-1c-0.9,0-1.7,0.4-2.2,1c-0.6,0.7-0.9,1.6-0.9,2.5c0,0.9,0.3,1.7,0.9,2.3
			c0.6,0.6,1.4,1,2.2,1c0.9,0,1.7-0.3,2.3-1c0.6-0.6,1-1.5,1-2.4C143.6,37.6,143.2,36.7,142.6,36.1 M136.8,48.5
			c-0.2,0.3-0.6,0.4-0.9,0.4c-0.3,0-0.7-0.1-0.9-0.4c-0.2-0.2-0.4-0.6-0.4-0.9V33.7c0-0.3,0.1-0.7,0.4-0.9c0.2-0.2,0.5-0.4,0.9-0.4
			c0.3,0,0.6,0.1,0.9,0.3c0.2,0.2,0.4,0.4,0.4,0.7c1-0.6,2.1-1,3.2-1c1.5,0,3,0.6,4.1,1.8c1.1,1.1,1.7,2.6,1.7,4.2
			c0,1.6-0.6,3.1-1.7,4.2c-1.1,1.1-2.5,1.7-4.1,1.7c-1.1,0-2.3-0.3-3.2-1v4.2C137.2,47.9,137,48.3,136.8,48.5"/>
		<path class="st1" d="M151.5,38.5c0,0.9,0.3,1.7,0.9,2.4c0.6,0.6,1.4,1,2.2,1c0.9,0,1.7-0.3,2.3-1c0.6-0.7,0.9-1.5,0.9-2.4
			c0-0.9-0.3-1.8-0.9-2.4c-0.6-0.6-1.4-1-2.3-1c-0.9,0-1.7,0.3-2.2,1C151.8,36.7,151.5,37.6,151.5,38.5 M150.6,42.7
			c-2.2-2.4-2.2-6,0-8.4c1-1.1,2.5-1.8,4-1.8c1.1,0,2.3,0.4,3.2,1c0.1-0.3,0.2-0.6,0.5-0.8c0.2-0.2,0.5-0.3,0.8-0.3
			c0.3,0,0.6,0.1,0.9,0.4c0.2,0.2,0.4,0.6,0.4,0.9v9.4c0,0.3-0.1,0.7-0.4,0.9c-0.2,0.2-0.5,0.4-0.9,0.4c-0.3,0-0.6-0.1-0.8-0.3
			c-0.2-0.2-0.4-0.5-0.5-0.7c-0.9,0.7-2,1-3.2,1C153.1,44.4,151.6,43.8,150.6,42.7"/>
		<path class="st1" d="M167.6,33.9c0.4-0.4,0.9-0.8,1.5-1c0.5-0.2,1.1-0.4,1.7-0.4c0.4,0,0.8,0.1,1.2,0.4c0.2,0.2,0.4,0.5,0.4,0.9
			c0,0.3-0.1,0.7-0.4,0.9c-0.2,0.2-0.6,0.4-0.9,0.4c-1.5,0-2.6,1.2-3.5,3.6v4.5c0,0.3-0.1,0.7-0.4,0.9c-0.2,0.2-0.6,0.4-0.9,0.4
			c-0.3,0-0.7-0.1-0.9-0.4c-0.2-0.2-0.4-0.6-0.4-0.9v-9.4c0-0.3,0.1-0.7,0.4-0.9c0.2-0.2,0.6-0.4,0.9-0.4c0.3,0,0.7,0.1,0.9,0.4
			c0.2,0.2,0.4,0.5,0.4,0.9L167.6,33.9z"/>
		<path class="st1" d="M179.5,32.5c0.4,0,0.7,0.1,1,0.4c0.3,0.2,0.4,0.6,0.4,0.9c0,0.7-0.6,1.3-1.3,1.3h-0.6v6.6
			c0.4,0,0.7,0.1,0.9,0.4c0.3,0.3,0.4,0.6,0.4,1c0,0.7-0.6,1.3-1.3,1.3c0,0,0,0,0,0c-1.5,0-2.6-1.2-2.6-2.6v-6.7h-0.7
			c-0.7,0-1.3-0.6-1.3-1.3s0.6-1.3,1.3-1.3h0.7v-3.5c0-0.4,0.1-0.7,0.4-0.9c0.3-0.3,0.6-0.4,1-0.4c0.7,0,1.3,0.6,1.3,1.3
			c0,0,0,0,0,0v3.5H179.5z"/>
		<path class="st1" d="M195,36c-0.6,0.7-0.9,1.6-0.9,2.5c0,0.9,0.3,1.8,0.9,2.5c1.3,1.2,3.2,1.2,4.5,0c0.6-0.7,0.9-1.6,0.9-2.5
			c0-0.9-0.3-1.8-0.9-2.5C198.3,34.8,196.3,34.8,195,36 M197.3,44.5c-1.5,0-3-0.6-4.1-1.8c-2.2-2.4-2.2-6.1,0-8.4
			c1-1.1,2.5-1.8,4-1.8c1.5,0,3,0.6,4,1.8c1.1,1.2,1.7,2.7,1.7,4.3c0,1.5-0.6,3-1.7,4.1C200.3,43.8,198.9,44.5,197.3,44.5"/>
		<path class="st1" d="M213.2,29c0,0.7-0.6,1.3-1.3,1.3c0,0,0,0,0,0c-0.2,0-0.5,0-0.7,0.1c-0.1,0-0.1,0.1-0.2,0.4
			c0,0.3-0.1,0.5-0.1,0.8V32h0.7c0.4,0,0.7,0.1,0.9,0.4c0.3,0.2,0.4,0.6,0.4,0.9c0,0.3-0.1,0.7-0.4,0.9c-0.2,0.3-0.6,0.4-0.9,0.4
			h-0.7v8.4c0,0.7-0.6,1.3-1.3,1.3c0,0,0,0,0,0c-0.7,0-1.3-0.6-1.3-1.3c0,0,0,0,0,0v-8.4h-0.6c-0.4,0-0.7-0.1-1-0.4
			c-0.5-0.5-0.5-1.3,0-1.8c0,0,0,0,0,0c0.3-0.3,0.6-0.4,1-0.4h0.6v-0.3c0-2.6,1.2-4,3.6-4c0.3,0,0.7,0.1,0.9,0.4
			C213.1,28.4,213.2,28.7,213.2,29"/>
		<path class="st1" d="M229.6,32.9c0.2-0.2,0.6-0.4,0.9-0.4c0.3,0,0.7,0.1,0.9,0.4c0.2,0.2,0.4,0.6,0.4,0.9v9c0,3.1-2.5,5.7-5.6,5.7
			c0,0,0,0-0.1,0c-0.9,0-1.7-0.2-2.5-0.6c-0.3-0.1-0.6-0.4-0.7-0.7c-0.1-0.3-0.1-0.7,0-1c0.2-0.3,0.4-0.5,0.8-0.6
			c0.4-0.1,0.8-0.1,1.1,0.1c0.4,0.2,0.9,0.3,1.4,0.3c0.6,0,1.2-0.2,1.7-0.6c0.5-0.4,0.9-0.9,1.1-1.5c-0.7,0.4-1.5,0.6-2.3,0.6
			c-1.3,0-2.6-0.5-3.5-1.5c-1-0.9-1.5-2.2-1.5-3.5v-5.6c-0.1-0.7,0.4-1.3,1.1-1.4c0.7-0.1,1.3,0.4,1.4,1.1c0,0.1,0,0.1,0,0.2v5.6
			c0,0.7,0.2,1.3,0.7,1.7c0.5,0.5,1.1,0.7,1.8,0.7c0.7,0,1.3-0.2,1.8-0.7c0.5-0.5,0.7-1.1,0.7-1.7v-5.6
			C229.3,33.4,229.4,33.1,229.6,32.9"/>
		<path class="st1" d="M239.7,36c-0.6,0.7-0.9,1.6-0.9,2.5c0,0.9,0.3,1.8,0.9,2.5c1.3,1.2,3.2,1.2,4.5,0c0.6-0.7,0.9-1.6,0.9-2.5
			c0-0.9-0.3-1.8-0.9-2.5C242.9,34.8,241,34.8,239.7,36 M242,44.5c-1.5,0-3-0.6-4.1-1.8c-2.2-2.4-2.2-6.1,0-8.4c1-1.1,2.5-1.8,4-1.8
			c1.5,0,3,0.6,4,1.8c1.1,1.2,1.7,2.7,1.7,4.3c0,1.5-0.6,3-1.7,4.1C245,43.8,243.5,44.5,242,44.5"/>
		<path class="st1" d="M261.4,39.5c0,1.3-0.5,2.6-1.5,3.5c-0.9,0.9-2.2,1.5-3.5,1.5c-1.3,0-2.6-0.5-3.5-1.5c-1-0.9-1.5-2.2-1.5-3.5
			v-5.7c0-0.3,0.1-0.6,0.4-0.9c0.5-0.5,1.3-0.5,1.7,0c0,0,0,0,0,0c0.2,0.2,0.4,0.5,0.4,0.9v5.7c0,1.3,1,2.4,2.4,2.4c0,0,0,0,0.1,0
			c0.7,0,1.3-0.2,1.8-0.7c0.5-0.4,0.7-1.1,0.8-1.7v-5.7c0-0.3,0.1-0.6,0.4-0.9c0.2-0.2,0.5-0.4,0.9-0.4c0.3,0,0.7,0.1,0.9,0.4
			c0.2,0.2,0.4,0.5,0.4,0.9L261.4,39.5z"/>
		<path class="st1" d="M137.8,10.6v12c0,0.4-0.2,0.8-0.5,1.1c-0.3,0.3-0.7,0.5-1.1,0.5c-0.4,0-0.8-0.2-1.1-0.5
			c-0.3-0.3-0.5-0.7-0.5-1.1V5.8c-0.1-0.5,0.2-1,0.6-1.3c0.4-0.3,0.8-0.4,1.3-0.3c0.4,0.1,0.8,0.3,1,0.6l9.4,13v-12
			c0-0.8,0.7-1.5,1.5-1.6c0.4,0,0.8,0.2,1.1,0.5c0.3,0.3,0.5,0.7,0.5,1.1v16.8c0,0.4-0.2,0.8-0.5,1.1c-0.3,0.3-0.7,0.5-1.1,0.5
			c-0.5,0-0.9-0.2-1.2-0.6c-0.1-0.1-0.1-0.1-0.1-0.2L137.8,10.6z"/>
		<path class="st1" d="M158.2,17c0,1.1,0.3,2.2,1.1,3c0.7,0.8,1.7,1.2,2.7,1.2c1,0,2.1-0.4,2.8-1.2c0.7-0.8,1.1-1.9,1.1-3
			c0-1.1-0.4-2.2-1.1-3c-0.7-0.8-1.7-1.2-2.7-1.2c-1,0-2.1,0.4-2.7,1.2C158.6,14.9,158.2,15.9,158.2,17 M157.1,22.1
			c-1.3-1.4-2-3.2-2-5.1c0-1.9,0.7-3.7,2-5.1c1.3-1.4,3.1-2.2,4.9-2.1c1.4,0,2.7,0.5,3.9,1.3c0.1-0.4,0.3-0.7,0.6-0.9
			c0.3-0.2,0.6-0.4,1-0.4c0.4,0,0.8,0.2,1,0.5c0.3,0.3,0.4,0.7,0.4,1.1v11.4c0,0.4-0.2,0.8-0.4,1.1c-0.3,0.3-0.7,0.4-1,0.4
			c-0.4,0-0.7-0.1-1-0.3c-0.3-0.2-0.5-0.5-0.6-0.9c-1.1,0.8-2.5,1.3-3.9,1.2C160.2,24.3,158.4,23.5,157.1,22.1"/>
		<path class="st1" d="M179.5,9.8c0.4,0,0.8,0.2,1.1,0.5c0.3,0.3,0.5,0.7,0.5,1.1c0,0.9-0.7,1.6-1.6,1.6h-0.7V21
			c0.4,0,0.8,0.2,1.1,0.5c0.3,0.3,0.5,0.7,0.5,1.1c0,0.9-0.7,1.6-1.5,1.6c0,0,0,0-0.1,0c-1.8,0-3.2-1.4-3.2-3.2v-8.1h-0.8
			c-0.9,0-1.6-0.7-1.6-1.6c0-0.4,0.2-0.8,0.5-1.1c0.3-0.3,0.7-0.5,1.1-0.5h0.8V5.6c0-0.4,0.2-0.9,0.5-1.1c0.3-0.3,0.7-0.5,1.1-0.5
			c0.9,0,1.6,0.7,1.6,1.6v0v4.2H179.5z"/>
		<path class="st1" d="M198.1,18.2c0,1.6-0.6,3.1-1.8,4.2c-1.1,1.2-2.7,1.8-4.3,1.8c-3.3,0-6-2.7-6-6v-6.9c0-0.4,0.2-0.8,0.4-1.1
			c0.6-0.6,1.5-0.6,2.1-0.1c0,0,0,0,0.1,0.1c0.3,0.3,0.4,0.7,0.4,1.1v6.9c0,1.6,1.3,3,3,3c0.8,0,1.6-0.3,2.1-0.9
			c0.6-0.5,0.9-1.3,0.9-2.1v-6.9c0-0.4,0.2-0.8,0.4-1.1c0.3-0.3,0.7-0.5,1.1-0.5c0.4,0,0.8,0.2,1.1,0.5c0.3,0.3,0.5,0.7,0.5,1.1
			L198.1,18.2z"/>
		<path class="st1" d="M207.1,11.5c0.5-0.6,1.1-1,1.8-1.3c0.7-0.3,1.4-0.5,2.1-0.5c0.5,0,1,0.1,1.4,0.4c0.3,0.3,0.5,0.7,0.4,1.1
			c0,0.4-0.2,0.8-0.4,1.1c-0.3,0.3-0.7,0.5-1.1,0.5c-1.8,0-3.2,1.5-4.3,4.4v5.5c0,0.4-0.2,0.8-0.5,1.1c-0.3,0.3-0.7,0.5-1.1,0.4
			c-0.9,0-1.5-0.7-1.6-1.5c0,0,0,0,0,0V11.3c0-0.4,0.2-0.8,0.5-1.1c0.3-0.3,0.7-0.4,1.1-0.4c0.4,0,0.8,0.1,1.1,0.4
			c0.3,0.3,0.5,0.7,0.5,1.1V11.5z"/>
		<path class="st1" d="M222.8,12.5c-1,0-2,0.4-2.7,1c-0.6,0.5-1,1.2-1.2,2h8.2c-0.2-0.8-0.7-1.5-1.4-2
			C224.9,12.9,223.9,12.6,222.8,12.5 M229.8,16.6c0,0.4-0.1,0.7-0.4,1c-0.3,0.3-0.7,0.4-1.1,0.4H219c0.1,0.7,0.5,1.4,1,1.9
			c0.7,0.8,1.7,1.2,2.7,1.3c1.1,0.2,2.2-0.1,3.1-0.7c0.3-0.3,0.7-0.5,1.2-0.5c0.4,0,0.7,0.1,1,0.4c0.5,0.5,0.5,1.3,0,1.8
			c0,0,0,0,0,0c-1.4,1.3-3.2,2-5.1,1.9c-1.9,0-3.8-0.7-5.1-2.1c-2.8-2.8-2.8-7.4,0-10.2c1.3-1.4,3.1-2.2,4.9-2.1
			c1.8,0,3.6,0.6,4.9,1.9c1.3,1.3,2.1,3,2.2,4.8L229.8,16.6z"/>
		<path class="st1" d="M243.6,10.2c0.6-0.6,1.6-0.6,2.2,0c0.3,0.3,0.5,0.7,0.4,1.1v11.3c0,0.4-0.1,0.8-0.4,1.1
			c-0.3,0.3-0.7,0.5-1.1,0.4c-0.9,0-1.6-0.7-1.6-1.6V11.4C243.1,11,243.3,10.5,243.6,10.2 M246.3,5.5v0.6c0,0.4-0.2,0.8-0.4,1.1
			c-0.3,0.3-0.7,0.5-1.1,0.5c-0.9,0-1.6-0.7-1.6-1.6V5.5c0-0.9,0.7-1.6,1.6-1.6c0.4,0,0.8,0.2,1.1,0.4
			C246.1,4.7,246.3,5.1,246.3,5.5"/>
		<path class="st1" d="M260.2,11.4c0.3,0.2,0.6,0.6,0.7,1c0.1,0.4,0,0.8-0.2,1.2c-0.2,0.3-0.6,0.6-1,0.7c-0.4,0.1-0.8,0-1.2-0.2
			c-0.8-0.6-1.7-1-2.7-1.1c-0.6,0-1.2,0.2-1.7,0.5c-0.3,0.2-0.5,0.4-0.5,0.6c0,0.1,0,0.3,0.1,0.4c0.1,0.1,0.2,0.2,0.3,0.3
			c0.7,0.4,1.4,0.6,2.1,0.7l0,0l0,0c1,0.2,1.9,0.5,2.8,0.9c0.8,0.3,1.4,0.9,1.9,1.6c0.4,0.6,0.6,1.3,0.6,2c0,1.4-0.7,2.6-1.8,3.4
			c-1.1,0.8-2.4,1.2-3.7,1.2c-1.9-0.1-3.7-0.7-5.2-2c-0.3-0.2-0.5-0.6-0.5-1c-0.1-0.4,0.1-0.8,0.3-1.1c0.2-0.3,0.6-0.6,1-0.6
			c0.4-0.1,0.8,0.1,1.1,0.3c0.9,0.8,2,1.3,3.2,1.3c0.7,0,1.4-0.2,2-0.6c0.3-0.3,0.5-0.5,0.5-0.7c0-0.1,0-0.3-0.1-0.4
			c-0.1-0.1-0.2-0.3-0.4-0.3c-0.7-0.4-1.5-0.7-2.3-0.8l0,0c-0.9-0.2-1.8-0.4-2.7-0.8c-0.7-0.4-1.4-0.9-1.8-1.6
			c-0.3-0.6-0.5-1.2-0.5-1.8c0-1.3,0.6-2.5,1.7-3.3c1.1-0.7,2.3-1.1,3.6-1.1C257.5,9.8,259,10.4,260.2,11.4"/>
	</g>
</g>
</svg>
