<svg id="Camada_1" data-name="Camada 1" xmlns="http://www.w3.org/2000/svg" viewBox="0 0 150 150"><defs><style>.cls-1{fill:#14ce4f;}.cls-2{fill:none;stroke:#14ce4f;stroke-miterlimit:10;}</style></defs><title>ÍCONES BIONOTE</title><path class="cls-1" d="M91.83,71.84H58.17A8,8,0,0,0,50,79.56V97.28A8,8,0,0,0,58.17,105H91.83A8,8,0,0,0,100,97.28V79.56A8,8,0,0,0,91.83,71.84ZM60.4,99.26H57V80.52H53.49V77.8H55l9.66,0v2.81H60.4ZM73.06,83.35l-.12,15.8H70.13V97.09c-.74,1.61-3.73,2.9-5.29,1.78-.84-.6-.81-1.65-.89-2.56-.05-.51,0-1.63,0-3.14V83.32h3.5l0,10a20.43,20.43,0,0,0,0,2.42c.5,1.51,1.8.69,2.09-.08a16,16,0,0,0,0-2.41v-10h3.51Zm5.09,14.32L77.89,99,75,99V77.82h3.42V84c3.23-2.56,5.62-.67,5.62,2.49v8.24C84.08,98.72,81.8,101,78.15,97.67Zm16.91-3.33a4.38,4.38,0,0,1-3.88,5h0c-2.38.22-5-1.52-5-5.69V88.73a11,11,0,0,1,.44-3.47,4,4,0,0,1,1.47-2c2.11-1.5,6.27-1,6.7,1.92A34,34,0,0,1,95,89.41v2.23H89v3.85a1.44,1.44,0,0,0,1.45,1.43H91a1.45,1.45,0,0,0,1.45-1.43V93.65H95a4.06,4.06,0,0,1,.08.69Z"/><path class="cls-1" d="M81.5,86v9.32a1.55,1.55,0,0,1-3,0V86a1.55,1.55,0,0,1,3,0Z"/><path class="cls-1" d="M92.39,87l0,2H89l0-2a1.58,1.58,0,0,1,1.57-1.57h.22A1.58,1.58,0,0,1,92.39,87Z"/><path class="cls-2" d="M81.55,66.81a2.32,2.32,0,0,0,.84,1.06,2.36,2.36,0,0,0,1.42.4,2.23,2.23,0,0,0,1.34-.42,3.28,3.28,0,0,0,1-1.25L86.06,68h3.88V51.45h-3V64.27a1.29,1.29,0,1,1-2.57,0V51.45H81.15V62.59c0,1.42,0,2.37.07,2.85A4.65,4.65,0,0,0,81.55,66.81Z"/><path class="cls-2" d="M78.85,54.45a5.17,5.17,0,0,0-.72-1.71,3.79,3.79,0,0,0-1.49-1.36,4.8,4.8,0,0,0-2.3-.51,3.93,3.93,0,0,0-4,3,13.6,13.6,0,0,0-.4,3.7l-.12,4.33A18.55,18.55,0,0,0,70,65.13,5.14,5.14,0,0,0,70.74,67a3.06,3.06,0,0,0,1.44,1.15,5.85,5.85,0,0,0,2.27.39,5,5,0,0,0,2.13-.45,3.79,3.79,0,0,0,1.51-1.39,5.53,5.53,0,0,0,.77-2A23.17,23.17,0,0,0,79,61.27V57.15A13.73,13.73,0,0,0,78.85,54.45ZM76,64a1.54,1.54,0,1,1-3.06,0V55.34a1.54,1.54,0,1,1,3.06,0Z"/><polygon class="cls-2" points="62.17 68.56 65.8 68.56 65.8 55.86 70.15 45 66.15 45 63.85 53.07 61.52 45.12 57.61 45.12 62.17 55.95 62.17 68.56"/></svg>